<?xml version="1.0" encoding="UTF-8"?><svg id="a" xmlns="http://www.w3.org/2000/svg" width="1874.88" height="1133.37" viewBox="0 0 1874.88 1133.37"><path d="M1784.97,0c-3.34,0-6.73.19-10.06.56l-837.47,93.43L99.97.56c-3.33-.37-6.72-.56-10.06-.56C40.33,0,0,40.38,0,90.01v953.35c0,24.16,9.43,46.84,26.57,63.85,16.98,16.87,39.48,26.16,63.34,26.16,3.34,0,6.73-.19,10.06-.56l837.47-93.42,837.47,93.42c3.34.37,6.72.56,10.07.56,49.57-.01,89.9-40.38,89.9-90.01V90.01c0-49.63-40.33-90.01-89.91-90.01ZM1834.89,1043.36c0,29.81-25.92,53-55.55,49.69l-841.9-93.9-841.9,93.9c-29.63,3.31-55.54-19.88-55.54-49.69V90.01c0-29.81,25.91-53,55.54-49.7l841.9,93.92,841.9-93.92c29.63-3.3,55.55,19.89,55.55,49.7v953.35Z"/><path d="M671.14,268.35c3.45-1.26,6.23-2.71,8.36-4.37,2.12-1.67,2.39-3.76.8-6.26-1.59-2.08-3.72-2.71-6.37-1.88-2.66.84-5.45,2.3-8.36,4.38-2.92,2.09-5.43,4.38-7.55,6.88-2.14,2.51-3.73,4.17-4.78,5,1.59,0,4.11-.31,7.56-.94,3.45-.62,6.9-1.56,10.34-2.81Z"/><path d="M763.89,847.89c-2.88,0-5.03,1.11-6.45,3.32-1.42,2.21-2.12,5.83-2.12,10.84s.71,8.63,2.12,10.84,3.56,3.32,6.45,3.32,5.03-1.11,6.45-3.32,2.12-5.83,2.12-10.84-.71-8.63-2.12-10.84c-1.42-2.21-3.57-3.32-6.45-3.32Z"/><path d="M654.04,873.08c-.5.05-.98.09-1.45.11-.47.03-.93.04-1.38.04-1.44,0-2.4.25-2.87.75-.47.5-.71,1.09-.71,1.79,0,.6.24,1.19.71,1.79.47.6,1.38.89,2.72.89.99,0,1.89-.32,2.68-.97.79-.65,1.42-1.49,1.86-2.53.25-.6.22-1.08-.07-1.45-.3-.37-.79-.51-1.49-.41Z"/><path d="M767.93,450.76c6.37-3.96,11.67-7.92,15.92-11.88,4.24-3.96,6.38-7.82,6.38-11.57,0-2.08-1.87-3.13-5.58-3.13-9.02,0-18.97,4.59-29.85,13.76-10.88,9.18-19.77,19.6-26.66,31.27,5.83-1.67,12.33-4.17,19.49-7.5,7.17-3.33,13.93-6.99,20.3-10.95Z"/><path d="M574.48,865.4c.42.05.83.07,1.23.07,1.44,0,2.42-.26,2.94-.78s.78-1.13.78-1.83c0-.6-.27-1.13-.82-1.6-.55-.47-1.24-.71-2.09-.71-1.04,0-1.93.2-2.65.6-.72.4-1.33.89-1.83,1.49-.4.55-.5,1.07-.3,1.57.2.5.64.82,1.34.97.5.1.96.17,1.38.22Z"/><path d="M1120.11,443.77c5.58,3.13,10.74,7.81,15.52,14.06,14.33-.41,29.2-3.22,44.58-8.44,15.39-5.21,30.24-11.78,44.57-19.7,14.32-7.91,27.45-16.87,39.4-26.88,11.94-10.02,21.62-20.02,29.05-30.03,7.42-10,11.93-19.69,13.52-29.07,1.6-9.39-.79-17.41-7.15-24.08-5.84-7.08-16.59-12.19-32.24-15.32-15.66-3.13-37.27-3.64-64.86-1.56,0,3.75-3.19,10.42-9.56,20.01-6.37,9.59-14.33,20.64-23.88,33.14-9.55,12.51-20.03,25.96-31.44,40.34-11.4,14.39-22.41,28.04-33.02,40.96,4.76,1.25,9.94,3.44,15.51,6.57Z"/><path d="M421.06,691c-2.83-1.53-6.79-2.3-11.89-2.3h-5.96c-2.6,0-4.67.83-6.2,2.47-1.53,1.64-2.3,3.94-2.3,6.88,0,2.61.77,4.68,2.3,6.21,1.53,1.53,3.6,2.29,6.2,2.29h5.96c5.21,0,9.2-.76,11.98-2.29,2.78-1.53,4.16-3.71,4.16-6.55s-1.41-5.18-4.25-6.71Z"/><path d="M912.46,865.4c.42.05.83.07,1.23.07,1.44,0,2.42-.26,2.94-.78s.78-1.13.78-1.83c0-.6-.27-1.13-.82-1.6-.55-.47-1.24-.71-2.09-.71-1.04,0-1.93.2-2.65.6-.72.4-1.33.89-1.83,1.49-.4.55-.5,1.07-.3,1.57.2.5.64.82,1.34.97.5.1.96.17,1.38.22Z"/><path d="M403.21,663.2h4.77c5.66,0,9.4-.79,11.21-2.38,1.82-1.58,2.73-3.79,2.73-6.63s-1.08-5.01-3.23-6.54c-2.16-1.53-6.01-2.3-11.56-2.3h-3.92c-2.6,0-4.67.83-6.2,2.47-1.53,1.64-2.3,3.94-2.3,6.88,0,2.61.77,4.68,2.3,6.21,1.53,1.53,3.6,2.29,6.2,2.29Z"/><path d="M902.67,701.11c-1.13.12-2.24.2-3.31.26-1.08.06-2.13.08-3.15.08-3.29,0-5.47.57-6.54,1.7-1.08,1.14-1.62,2.5-1.62,4.08,0,1.36.54,2.72,1.62,4.08,1.07,1.36,3.14,2.04,6.2,2.04,2.27,0,4.31-.73,6.12-2.21,1.81-1.47,3.23-3.4,4.25-5.78.57-1.36.51-2.46-.17-3.31-.68-.85-1.81-1.16-3.4-.94Z"/><path d="M513.03,701.11c-1.13.12-2.24.2-3.31.26-1.08.06-2.13.08-3.15.08-3.28,0-5.47.57-6.54,1.7-1.08,1.14-1.62,2.5-1.62,4.08,0,1.36.54,2.72,1.62,4.08,1.07,1.36,3.14,2.04,6.2,2.04,2.27,0,4.31-.73,6.12-2.21,1.82-1.47,3.23-3.4,4.25-5.78.57-1.36.51-2.46-.17-3.31-.68-.85-1.81-1.16-3.4-.94Z"/><path d="M496.23,865.4c.42.05.83.07,1.23.07,1.44,0,2.42-.26,2.94-.78.52-.52.78-1.13.78-1.83,0-.6-.27-1.13-.82-1.6-.55-.47-1.24-.71-2.09-.71-1.04,0-1.93.2-2.65.6-.72.4-1.33.89-1.83,1.49-.4.55-.5,1.07-.3,1.57.2.5.65.82,1.34.97.5.1.96.17,1.38.22Z"/><path d="M1234.17,663.2h4.76c5.67,0,9.41-.79,11.22-2.38,1.81-1.58,2.72-3.79,2.72-6.63s-1.08-5.01-3.23-6.54c-2.15-1.53-6.01-2.3-11.56-2.3h-3.91c-2.61,0-4.68.83-6.21,2.47-1.52,1.64-2.29,3.94-2.29,6.88,0,2.61.77,4.68,2.29,6.21,1.53,1.53,3.6,2.29,6.21,2.29Z"/><path d="M1342.12,663.2h4.76c5.66,0,9.4-.79,11.22-2.38,1.81-1.58,2.72-3.79,2.72-6.63s-1.08-5.01-3.23-6.54c-2.15-1.53-6.01-2.3-11.56-2.3h-3.91c-2.61,0-4.68.83-6.21,2.47-1.53,1.64-2.29,3.94-2.29,6.88,0,2.61.76,4.68,2.29,6.21,1.53,1.53,3.6,2.29,6.21,2.29Z"/><path d="M1258.74,862.05c-1.59,0-2.88.68-3.88,2.05-.99,1.37-1.49,3.17-1.49,5.4s.5,4.04,1.49,5.4c.99,1.37,2.31,2.05,3.95,2.05,1.84,0,3.25-.68,4.25-2.05.99-1.37,1.49-3.17,1.49-5.4s-.5-4.04-1.49-5.4c-1-1.37-2.44-2.05-4.32-2.05Z"/><path d="M1234.17,706.55h5.95c5.21,0,9.21-.76,11.98-2.29,2.78-1.53,4.17-3.71,4.17-6.55s-1.42-5.18-4.25-6.71c-2.83-1.53-6.8-2.3-11.9-2.3h-5.95c-2.61,0-4.68.83-6.21,2.47-1.52,1.64-2.29,3.94-2.29,6.88,0,2.61.77,4.68,2.29,6.21,1.53,1.53,3.6,2.29,6.21,2.29Z"/><path d="M1172.22,873.08c-.5.05-.98.09-1.45.11-.47.03-.93.04-1.38.04-1.44,0-2.4.25-2.87.75-.47.5-.71,1.09-.71,1.79,0,.6.24,1.19.71,1.79.47.6,1.38.89,2.72.89.99,0,1.89-.32,2.68-.97.79-.65,1.42-1.49,1.86-2.53.25-.6.22-1.08-.07-1.45-.3-.37-.79-.51-1.49-.41Z"/><path d="M1086.78,709.95c4.19,0,7.42-1.55,9.69-4.67s3.4-7.23,3.4-12.33-1.13-9.2-3.4-12.32-5.55-4.68-9.86-4.68c-3.63,0-6.57,1.56-8.84,4.68s-3.4,7.22-3.4,12.32,1.13,9.21,3.4,12.33,5.27,4.67,9.01,4.67Z"/><path d="M954.3,862.05c-1.59,0-2.88.68-3.88,2.05-.99,1.37-1.49,3.17-1.49,5.4s.5,4.04,1.49,5.4c.99,1.37,2.31,2.05,3.95,2.05,1.84,0,3.25-.68,4.25-2.05.99-1.37,1.49-3.17,1.49-5.4s-.5-4.04-1.49-5.4c-1-1.37-2.44-2.05-4.32-2.05Z"/><path d="M1784.97,80c-.39,0-.79.02-1.19.07l-846.34,94.41L91.1,80.07c-.4-.05-.8-.07-1.19-.07-5.47,0-9.91,4.49-9.91,10.01v953.35c0,3.44,1.59,5.75,2.93,7.08,1.1,1.1,3.47,2.93,6.98,2.93.39,0,.79-.03,1.19-.07l846.34-94.4,846.34,94.4c.41.04.79.07,1.19.07,5.47,0,9.91-4.49,9.91-10.01V90.01c0-5.52-4.44-10.01-9.91-10.01ZM869.79,395.3c6.9-18.35,20.57-34.71,40.99-49.1,20.42-14.38,44.57-26.88,72.43-37.52,27.86-10.63,58.11-19.17,90.74-25.63,32.63-6.46,64.87-10.74,96.71-12.83,14.32-1.25,30.1-1.98,47.35-2.19,17.24-.2,34.49.53,51.74,2.19,17.24,1.68,33.69,4.49,49.35,8.45,15.64,3.96,28.78,9.69,39.39,17.19,11.68,8.34,19.37,18.55,23.08,30.64,3.71,12.09,1.33,27.31-7.15,45.66-10.1,22.1-26.15,41.69-48.17,58.78-22.01,17.1-47.35,30.75-76,40.96-28.65,10.22-59.03,16.37-91.14,18.45-32.11,2.09-62.74-1.04-91.93-9.38-21.75,27.1-38.73,50.76-50.94,70.98-12.2,20.21-15.18,20.36-18.9,39.54,1.6,5.41-1.33,9.07-8.76,10.94-7.42,1.88-16.05,2.08-25.86.63-9.82-1.46-18.98-4.8-27.47-10-8.49-5.22-12.47-12.2-11.93-20.95,0-12.51-1-7.13,6.96-22.98,7.96-15.84,18.3-32.3,31.04-49.4,12.74-17.09,27.06-34.39,42.99-51.91,15.92-17.5,31.83-34.29,47.76-50.33,15.91-16.05,31.03-31.06,45.36-45.03,14.32-13.97,26-25.74,35.03-35.33v-1.88c0-.83-.54-1.25-1.6-1.25-20.16,3.75-39.93,9.18-59.3,16.27-19.37,7.08-36.74,15.1-52.13,24.07-15.39,8.96-27.86,18.76-37.42,29.39-9.55,10.64-14.59,21.16-15.11,31.58,0,4.58,1.19,7.92,3.58,10,2.39,2.09,5.18,3.44,8.36,4.07,3.19.62,6.36,1.15,9.54,1.56,3.19.42,5.58,1.46,7.17,3.13,3.71,4.58,3.19,8.12-1.59,10.63-4.78,2.5-9.03,4.38-12.73,5.63-18.57,7.08-35.55,9.9-50.94,8.44-15.39-1.45-28.13-5.31-38.21-11.56-10.08-6.26-17.25-14.18-21.49-23.77-4.24-9.58-4.51-18.97-.8-28.14ZM907.09,677.14c-1.25-1.58-3.09-2.74-5.52-3.48-2.44-.74-5.13-1.11-8.08-1.11-3.4,0-6.6.49-9.6,1.45-3.01.96-6.21,2.18-9.61,3.65-.91.46-1.87.68-2.89.68-1.25,0-2.38-.42-3.4-1.27-1.02-.85-1.81-1.96-2.38-3.32l-3.57-9.52c-.68-1.92-.68-3.79,0-5.61.68-1.81,1.93-3.11,3.74-3.91,2.15-.9,4.28-1.78,6.38-2.63,2.09-.85,4.27-1.59,6.54-2.21,2.27-.62,4.76-1.11,7.48-1.45,2.72-.34,5.78-.51,9.18-.51,7.71,0,14.34.85,19.89,2.55,5.55,1.7,10.09,4.17,13.6,7.4,3.51,3.23,6.09,7.25,7.74,12.07,1.64,4.82,2.46,10.28,2.46,16.4v30.94c0,.91.2,1.7.6,2.38.39.68,1.21,1.25,2.46,1.7,1.59.57,2.89,1.39,3.91,2.47,1.02,1.08,1.53,2.69,1.53,4.84s-.62,3.69-1.87,4.93c-1.25,1.25-2.89,1.87-4.93,1.87h-18.7c-2.04,0-4.11-.7-6.2-2.12-2.1-1.42-3.83-3.09-5.19-5.02-.91-1.24-1.7-1.87-2.38-1.87s-1.42.57-2.21,1.7c-2.27,3.06-5.07,5.47-8.41,7.23-3.35,1.75-7.57,2.63-12.67,2.63-3.85,0-7.51-.51-10.96-1.53-3.46-1.02-6.46-2.6-9.01-4.76-2.55-2.15-4.59-4.95-6.12-8.41-1.53-3.46-2.3-7.62-2.3-12.5,0-9.29,3.15-16.2,9.44-20.74,6.29-4.53,14.64-6.8,25.07-6.8,4.08,0,8.16-.17,12.24-.51,1.7-.22,2.98-.93,3.83-2.12.85-1.19.82-2.35-.09-3.49ZM212.25,563.17c0-9.15-.86-9.77,7.35-23.73,8.24-13.97,18.97-28.98,32.24-45.02,13.26-16.05,27.99-32.42,44.17-49.09,16.19-16.67,32.1-32.73,47.76-48.16,15.65-15.42,30.39-29.49,44.18-42.21,13.8-12.71,24.66-23.03,32.63-30.96-16.98.84-33.57,1.78-49.75,2.82-16.18,1.05-32.51,1.56-48.95,1.56-2.65,0-5.83-.1-9.54-.31-3.73-.2-5.58-1.77-5.58-4.69,0-2.5,1.46-5.73,4.38-9.69,2.92-3.96,6.5-7.81,10.74-11.57,4.24-3.75,8.62-7.08,13.14-10.01,4.51-2.92,8.35-4.79,11.54-5.63,7.42-2.08,15.65-3.01,24.67-2.81,9.02.21,17.25-.11,24.67-.93,31.32-2.08,63.02-3.76,95.11-5.01,32.1-1.25,63.8-3.54,95.12-6.88,9.54-10.84,21.21-20,35.01-27.51,13.79-7.51,27.33-11.89,40.6-13.14,11.66-1.25,21.62-.2,29.84,3.13,8.22,3.34,14.19,8.03,17.91,14.07,3.72,6.05,4.91,12.72,3.59,20.02-1.34,7.29-5.45,14.28-12.34,20.94-6.38,6.25-12.73,11.06-19.1,14.39-6.37,3.33-12.89,5.83-19.51,7.5-6.63,1.67-13.53,2.81-20.7,3.44-7.16.62-14.72,1.36-22.68,2.19-13.79,17.51-26.53,34.19-38.2,50.02-4.78,6.68-9.69,13.56-14.73,20.65-5.04,7.08-9.81,13.75-14.32,20.01-4.51,6.26-8.49,12.09-11.93,17.51-3.45,5.42-6.23,9.8-8.35,13.13,4.24-3.76,9.79-8.03,16.67-12.82,6.89-4.79,14.16-9.38,21.84-13.76,7.68-4.38,15.49-8.13,23.43-11.26,7.94-3.12,15.09-4.69,21.45-4.69,7.41,0,15.35,1.88,23.83,5.63,8.46,3.76,12.7,9.38,12.7,16.89s-3.45,16.67-10.35,27.51c-6.9,10.83-14.32,21.47-22.29,31.9-7.96,10.42-15.38,19.91-22.28,28.45-6.9,8.55-10.34,14.7-10.34,18.44,0,.84.53,1.25,1.59,1.25,6.36,0,13.66-2.91,21.88-8.75,8.22-5.83,16.18-12.19,23.87-19.07,7.7-6.88,14.61-13.24,20.74-19.07,1.49-1.43,2.85-2.68,4.08-3.75.18-.31.36-.61.55-.92,8.73-14.38,19.86-27.31,33.37-38.77,13.52-11.46,28.75-20.84,45.71-28.14,16.96-7.29,33.9-10.95,50.86-10.95,10.07,0,19.47,1.67,28.21,4.99,8.73,3.32,13.11,10.38,13.11,21.18s-3.85,20.77-11.54,28.66c-7.7,7.9-17.11,14.33-28.26,19.31-11.15,4.99-23.22,8.83-36.22,11.52-13,2.71-25.07,4.68-36.21,5.92-1.06,2.91-1.86,5.71-2.39,8.42-.54,2.7-.79,5.09-.79,7.16,0,14.53,7.95,21.8,23.87,21.8,11.14,0,22.42-2.7,33.82-8.12,11.41-5.42,22.03-11.57,31.84-18.45,9.82-6.88,18.31-13.34,25.47-19.39,7.17-6.04,11.81-9.69,13.94-10.94,2.64-.83,4.76-.11,6.36,2.19,1.59,2.3,2.39,4.49,2.39,6.57,0,2.5-1.07,4.99-3.19,7.49-7.42,8.35-16.31,17.42-26.66,27.22-10.36,9.81-21.62,18.81-33.82,27.04-12.21,8.23-24.95,15.08-38.21,20.56-13.27,5.49-26.53,8.23-39.77,8.23-18.5,0-33.96-4.27-46.38-12.82-12.4-8.54-18.62-21.16-18.62-37.84v-.39c-.44.43-.88.87-1.33,1.3-7.96,7.71-15.78,14.91-23.47,21.58-7.68,6.67-13.11,11.25-16.3,13.75-6.37,4.17-13.39,7.71-21.08,10.63-7.68,2.92-15.77,4.38-24.25,4.38-12.2,0-22-3.21-29.43-9.65-7.42-6.44-11.13-14.66-11.13-24.67,0-7.92,2.64-16.78,7.95-26.58,5.3-9.79,11.13-19.07,17.51-27.82,6.35-8.76,12.19-16.37,17.49-22.83,5.31-6.46,7.96-10.32,7.96-11.58v-.62l-1.59-1.88c-3.18,0-8.09,2.3-14.72,6.88-6.63,4.59-14.32,10.54-23.07,17.83-8.75,7.3-17.89,15.32-27.45,24.07-9.55,8.76-18.44,17.2-26.66,25.33-8.22,8.14-15.39,15.53-21.49,22.2-6.11,6.68-10.22,11.47-12.33,14.39-1.07.83-1.73,1.77-1.99,2.81-.27,1.05-.94,1.98-1.99,2.81-6.37,5.43-14.34,8.13-23.88,8.13-7.44,0-13.68-2.29-18.71-6.87-5.04-4.58-7.56-10.22-7.56-16.89,0-8.34,3.45-18.44,10.34-30.33,6.9-11.88,14.99-24.07,24.28-36.58,9.29-12.51,18.84-24.5,28.65-35.96,9.82-11.46,17.65-20.75,23.48-27.83l76.39-91.93c-13.79,0-27.45.11-40.97.32-13.54.21-27.21.52-41,.94,1.59.83,3.44,2.3,5.57,4.37,2.12,2.08,3.19,4.17,3.19,6.25,0,2.93-1.6,5.63-4.78,8.14-14.86,17.5-31.97,36.79-51.34,57.84-19.37,21.05-38.47,42.74-57.3,65.04-18.84,22.3-36.22,44.61-52.13,66.91-15.93,22.3-22.88,32.45-30.85,52.36-2.66,2.9-5.97,4.77-9.95,5.59-3.98.83-8.09,1.25-12.33,1.25s-9.03-.53-14.34-1.56c-5.3-1.04-10.32-2.7-15.11-4.98-4.77-2.29-8.88-4.99-12.34-8.09-3.44-3.12-5.17-6.76-5.17-10.91ZM786.9,729.16l-29.92-68.51c-.68-1.36-.91-2.66-.68-3.91.23-1.24.77-2.35,1.62-3.31.85-.96,1.95-1.7,3.31-2.21s2.78-.77,4.25-.77h12.58c3.06,0,5.5,1,7.31,2.98,1.81,1.98,3.34,4.39,4.59,7.22l12.41,29.24c.79,1.48,1.47,2.21,2.04,2.21.68,0,1.3-.73,1.87-2.21l11.56-29.24c1.13-2.83,2.64-5.24,4.51-7.22,1.87-1.98,4.33-2.98,7.39-2.98h12.58c1.59,0,3,.26,4.25.77s2.3,1.25,3.15,2.21c.85.96,1.38,2.07,1.61,3.31.23,1.25.06,2.55-.51,3.91l-27.2,64.6c-2.72,6.46-5.49,12.75-8.33,18.87-2.83,6.12-5.92,11.56-9.26,16.32-3.35,4.76-7.06,8.59-11.14,11.48-4.08,2.89-8.73,4.33-13.94,4.33-4.76,0-9.15-.4-13.17-1.19-4.03-.79-8.02-2.15-11.99-4.08-1.81-.9-3.03-2.23-3.65-3.99-.62-1.76-.65-3.6-.09-5.53l3.57-12.92c.34-1.36,1.02-2.46,2.04-3.31,1.02-.85,2.27-1.28,3.74-1.28,1.02,0,1.98.23,2.89.68,2.61,1.13,5.04,2.01,7.31,2.64,2.27.62,4.08.93,5.44.93,2.04,0,3.85-.93,5.44-2.8,1.59-1.87,3.06-4.23,4.42-7.06.68-1.36.99-2.86.94-4.5-.06-1.64-.37-3.2-.94-4.68ZM597.52,700.35c.91,2.1,2.1,3.85,3.57,5.27,1.47,1.42,3.17,2.49,5.1,3.23,1.93.74,3.85,1.1,5.78,1.1,2.83,0,5.19-.19,7.06-.59,1.87-.4,3.48-.91,4.84-1.53,1.36-.62,2.64-1.33,3.83-2.13,1.19-.79,2.46-1.53,3.82-2.21.91-.45,1.87-.68,2.89-.68,1.25,0,2.38.43,3.4,1.28,1.02.85,1.82,1.95,2.38,3.31l5.27,12.92c.68,1.82.62,3.57-.17,5.27-.79,1.7-1.98,3.12-3.57,4.25-3.97,2.84-8.13,4.91-12.49,6.21-4.37,1.3-10.23,1.95-17.6,1.95s-13.77-1.02-19.55-3.06c-5.78-2.04-10.71-5.01-14.79-8.92-4.08-3.91-7.2-8.64-9.35-14.2-2.15-5.55-3.23-11.84-3.23-18.87s1.08-13.31,3.23-18.87c2.15-5.55,5.19-10.28,9.1-14.19,3.91-3.91,8.61-6.89,14.11-8.93,5.49-2.04,11.53-3.06,18.1-3.06s12.16.66,16.75,1.96c4.59,1.3,9.04,3.37,13.34,6.2,1.59,1.14,2.86,2.61,3.83,4.42.96,1.82.93,3.52-.09,5.1l-6.97,11.22c-.79,1.25-1.7,2.33-2.72,3.23-1.02.91-2.15,1.36-3.4,1.36-.79,0-1.64-.22-2.55-.68-2.72-1.47-5.32-2.63-7.82-3.48-2.49-.85-5.49-1.28-9.01-1.28-9.63,0-14.45,5.67-14.45,17,0,2.84.46,5.3,1.36,7.4ZM339.8,659.18l-25.75,18.7c-4.45,3.23-6.7,10.16-5,15.39l9.84,30.26c1.7,5.23-.55,6.86-5,3.63l-25.75-18.7c-4.45-3.24-11.73-3.24-16.18,0l-25.74,18.7c-4.45,3.23-6.7,1.6-5-3.63l9.83-30.26c1.7-5.23-.55-12.16-5-15.39l-25.74-18.7c-4.45-3.24-3.59-5.88,1.91-5.88h31.82c5.5,0,11.39-4.28,13.09-9.51l9.83-30.26c1.7-5.23,4.48-5.23,6.18,0l9.84,30.26c1.7,5.23,7.59,9.51,13.09,9.51h31.82c5.5,0,6.35,2.64,1.91,5.88ZM379.42,735.45c-5.11,0-9.21-1.55-12.33-4.67-3.12-3.12-4.67-7.23-4.67-12.33v-85c0-5.1,1.55-9.2,4.67-12.32,3.12-3.12,7.22-4.68,12.33-4.68h27.71c15.97,0,27.96,3.18,35.95,9.52,7.99,6.35,11.98,15.19,11.98,26.52,0,4.54-.79,8.67-2.37,12.41-1.59,3.74-3.86,7.09-6.8,10.03,3.96,3.06,7.05,6.63,9.26,10.71,2.21,4.08,3.31,8.67,3.31,13.77,0,11.22-3.99,20.04-11.98,26.44-7.99,6.4-20.26,9.6-36.81,9.6h-30.25ZM477.19,843.04l-12.52,39.13c-.75,2.34-1.84,3.91-3.28,4.73-1.44.82-2.83,1.23-4.17,1.23h-2.98c-1.34,0-2.76-.48-4.25-1.45-1.49-.97-2.56-2.47-3.21-4.51l-12.52-39.13c-.35-1.04-.43-2-.26-2.87.17-.87.55-1.61,1.12-2.24.57-.62,1.32-1.11,2.24-1.45.92-.35,1.92-.52,3.02-.52h1.27c2.24,0,4.04.66,5.4,1.98,1.37,1.32,2.32,3.07,2.87,5.25l4.92,19.08c.3,1.09.6,1.64.89,1.64.35,0,.67-.55.97-1.64l5.22-19.15c.6-2.19,1.54-3.92,2.83-5.22,1.29-1.29,3.06-1.94,5.29-1.94h.82c1.14,0,2.17.17,3.09.52.92.35,1.68.83,2.27,1.45.6.62.99,1.37,1.19,2.24.2.87.12,1.83-.22,2.87ZM514.94,884.55c-.27.79-.81,1.37-1.6,1.71-1.89.8-4.01,1.49-6.37,2.09-2.36.6-5.23.89-8.61.89-6.51,0-11.48-1.75-14.91-5.25-3.43-3.5-5.14-8.33-5.14-14.5,0-2.98.42-5.68,1.27-8.09.84-2.41,2.06-4.48,3.65-6.22,1.59-1.74,3.51-3.08,5.78-4.02,2.26-.94,4.81-1.42,7.64-1.42s5.38.31,7.49.93c2.11.62,3.86,1.48,5.25,2.57,1.39,1.09,2.42,2.37,3.09,3.84.67,1.47,1.01,3.04,1.01,4.73,0,2.14-.39,3.96-1.15,5.48-.77,1.52-1.84,2.75-3.2,3.69-1.37.94-2.98,1.63-4.84,2.05-1.86.42-3.91.63-6.15.63-.45,0-.91-.01-1.38-.04-.47-.02-.96-.06-1.45-.11-.7-.1-1.14.01-1.34.34-.2.32-.05.71.45,1.16.7.7,1.53,1.18,2.5,1.45.97.27,1.98.41,3.02.41,1.79,0,3.48-.2,5.07-.6,1.59-.4,3.13-.92,4.62-1.57.4-.2.82-.3,1.27-.3.6,0,1.13.19,1.6.56.47.37.78.86.93,1.45l1.56,5.66c.25.85.24,1.67-.04,2.46ZM553.36,884.63c-.3.75-.82,1.34-1.56,1.79-1.74.99-3.35,1.71-4.84,2.16s-2.98.67-4.47.67c-3.38,0-6.2-.44-8.46-1.3-2.26-.87-4.06-2.07-5.4-3.61-1.34-1.54-2.3-3.33-2.87-5.37-.57-2.04-.86-4.25-.86-6.63v-7.3c0-.7-.2-1.24-.6-1.64-.4-.4-.94-.6-1.64-.6h-.75c-1.34,0-2.42-.41-3.24-1.23-.82-.82-1.23-1.9-1.23-3.24v-2.98c0-1.69.62-2.96,1.86-3.8l10.21-6.71c.99-.65,2.02-1.38,3.09-2.2,1.07-.82,2.07-1.23,3.02-1.23s1.63.32,2.05.97.63,1.54.63,2.68v3.58c0,.7.2,1.24.6,1.64.4.4.94.6,1.64.6h5.96c1.34,0,2.42.41,3.24,1.23.82.82,1.23,1.9,1.23,3.24v2.98c0,1.34-.41,2.42-1.23,3.24-.82.82-1.9,1.23-3.24,1.23h-5.96c-.7,0-1.24.2-1.64.6s-.6.94-.6,1.64v4.47c0,2.49.31,4.35.93,5.59.62,1.24,1.8,1.86,3.54,1.86.84,0,1.63-.19,2.35-.56.72-.37,1.7-.88,2.94-1.53.5-.25.94-.37,1.34-.37.55,0,1.05.2,1.53.6.47.4.78.89.93,1.49l1.56,5.66c.25.85.22,1.64-.07,2.38ZM551.11,735.45h-18.7c-2.04,0-4.11-.7-6.2-2.12-2.1-1.42-3.83-3.09-5.19-5.02-.9-1.24-1.7-1.87-2.38-1.87s-1.41.57-2.21,1.7c-2.26,3.06-5.07,5.47-8.41,7.23-3.35,1.75-7.57,2.63-12.67,2.63-3.85,0-7.5-.51-10.96-1.53-3.46-1.02-6.46-2.6-9.01-4.76-2.55-2.15-4.59-4.95-6.12-8.41-1.53-3.46-2.3-7.62-2.3-12.5,0-9.29,3.15-16.2,9.44-20.74,6.29-4.53,14.65-6.8,25.07-6.8,4.08,0,8.16-.17,12.24-.51,1.7-.22,2.98-.93,3.83-2.12.85-1.19.82-2.35-.09-3.49-1.24-1.58-3.08-2.74-5.52-3.48-2.44-.74-5.13-1.11-8.08-1.11-3.4,0-6.6.49-9.6,1.45s-6.21,2.18-9.61,3.65c-.9.46-1.87.68-2.89.68-1.24,0-2.38-.42-3.4-1.27-1.02-.85-1.81-1.96-2.38-3.32l-3.57-9.52c-.68-1.92-.68-3.79,0-5.61.68-1.81,1.93-3.11,3.74-3.91,2.16-.9,4.28-1.78,6.38-2.63,2.1-.85,4.28-1.59,6.54-2.21,2.27-.62,4.76-1.11,7.48-1.45,2.72-.34,5.78-.51,9.18-.51,7.71,0,14.34.85,19.89,2.55,5.56,1.7,10.09,4.17,13.6,7.4,3.52,3.23,6.09,7.25,7.74,12.07,1.64,4.82,2.46,10.28,2.46,16.4v30.94c0,.91.2,1.7.6,2.38.4.68,1.22,1.25,2.46,1.7,1.59.57,2.89,1.39,3.91,2.47,1.02,1.08,1.53,2.69,1.53,4.84s-.62,3.69-1.87,4.93c-1.24,1.25-2.89,1.87-4.93,1.87ZM593.19,884.55c-.27.79-.81,1.37-1.6,1.71-1.89.8-4.01,1.49-6.37,2.09-2.36.6-5.23.89-8.61.89-6.51,0-11.48-1.75-14.91-5.25-3.43-3.5-5.14-8.33-5.14-14.5,0-2.98.42-5.68,1.27-8.09.84-2.41,2.06-4.48,3.65-6.22,1.59-1.74,3.51-3.08,5.78-4.02,2.26-.94,4.81-1.42,7.64-1.42s5.38.31,7.49.93c2.11.62,3.86,1.48,5.25,2.57,1.39,1.09,2.42,2.37,3.09,3.84.67,1.47,1.01,3.04,1.01,4.73,0,2.14-.38,3.96-1.16,5.48-.77,1.52-1.84,2.75-3.2,3.69-1.37.94-2.98,1.63-4.84,2.05-1.86.42-3.91.63-6.15.63-.45,0-.91-.01-1.38-.04-.47-.02-.96-.06-1.45-.11-.7-.1-1.14.01-1.34.34-.2.32-.05.71.45,1.16.69.7,1.53,1.18,2.5,1.45.97.27,1.97.41,3.02.41,1.79,0,3.48-.2,5.07-.6,1.59-.4,3.13-.92,4.62-1.57.4-.2.82-.3,1.27-.3.6,0,1.13.19,1.6.56.47.37.78.86.93,1.45l1.56,5.66c.25.85.24,1.67-.04,2.46ZM632.8,856.91l-1.49,4.99c-.35,1.09-.81,1.76-1.38,2.01-.57.25-1.16.32-1.75.22-.75-.15-1.43-.35-2.05-.6-.62-.25-1.27-.48-1.94-.71s-1.39-.41-2.16-.56c-.77-.15-1.68-.22-2.72-.22-2.29,0-3.93.77-4.92,2.31-.99,1.54-1.52,3.53-1.56,5.96v13.34c0,1.34-.41,2.42-1.23,3.24s-1.9,1.23-3.24,1.23h-4.47c-1.34,0-2.42-.41-3.24-1.23-.82-.82-1.23-1.9-1.23-3.24v-24.82c0-.4-.09-.75-.26-1.04-.17-.3-.54-.55-1.08-.75-.7-.25-1.27-.61-1.71-1.08-.45-.47-.67-1.18-.67-2.12,0-.89.27-1.61.82-2.16.55-.55,1.27-.82,2.16-.82h8.2c.89,0,1.8.31,2.72.93.92.62,1.68,1.35,2.27,2.2.4.55.75.82,1.04.82s.62-.25.97-.75c1.14-1.59,2.48-2.71,4.02-3.35,1.54-.65,3.21-.97,4.99-.97,1.69,0,3.15.22,4.4.67,1.24.45,2.53,1.22,3.88,2.31.79.65,1.33,1.29,1.6,1.94.27.65.29,1.39.04,2.24ZM672.9,887.31c-.55.55-1.27.82-2.16.82h-8.2c-.89,0-1.8-.31-2.72-.93-.92-.62-1.68-1.35-2.27-2.2-.4-.55-.75-.82-1.04-.82s-.62.25-.97.75c-.99,1.34-2.22,2.4-3.69,3.17-1.47.77-3.32,1.16-5.55,1.16-1.69,0-3.29-.22-4.81-.67-1.52-.45-2.83-1.14-3.95-2.09-1.12-.94-2.01-2.17-2.68-3.69-.67-1.51-1.01-3.34-1.01-5.48,0-4.07,1.38-7.1,4.14-9.09,2.76-1.99,6.42-2.98,10.99-2.98,1.79,0,3.58-.07,5.37-.22.75-.1,1.3-.41,1.68-.93.37-.52.36-1.03-.04-1.53-.55-.7-1.35-1.2-2.42-1.53-1.07-.32-2.25-.48-3.54-.48-1.49,0-2.9.21-4.21.63-1.32.42-2.72.96-4.21,1.6-.4.2-.82.3-1.27.3-.55,0-1.04-.19-1.49-.56-.45-.37-.8-.86-1.04-1.45l-1.56-4.17c-.3-.84-.3-1.66,0-2.46.3-.79.84-1.37,1.64-1.71.94-.4,1.88-.78,2.79-1.16.92-.37,1.88-.69,2.87-.97.99-.27,2.09-.48,3.28-.63,1.19-.15,2.53-.22,4.02-.22,3.38,0,6.29.37,8.72,1.12,2.43.75,4.42,1.83,5.96,3.24s2.67,3.18,3.39,5.29c.72,2.11,1.08,4.51,1.08,7.19v13.56c0,.4.09.75.26,1.04.17.3.53.55,1.08.75.7.25,1.27.61,1.71,1.08.45.47.67,1.18.67,2.12s-.27,1.62-.82,2.16ZM716.2,883.66c0,1.34-.41,2.42-1.23,3.24s-1.9,1.23-3.24,1.23h-4.47c-1.34,0-2.42-.41-3.24-1.23s-1.23-1.9-1.23-3.24v-13.94c0-.99-.1-1.96-.3-2.91-.2-.94-.51-1.76-.93-2.46-.42-.69-.96-1.25-1.6-1.68-.65-.42-1.42-.63-2.31-.63-1.89,0-3.23.81-4.02,2.42-.79,1.62-1.22,3.54-1.27,5.78v13.42c0,1.34-.41,2.42-1.23,3.24s-1.9,1.23-3.24,1.23h-4.47c-1.34,0-2.42-.41-3.24-1.23-.82-.82-1.23-1.9-1.23-3.24v-24.82c0-.4-.09-.75-.26-1.04-.17-.3-.54-.55-1.08-.75-.7-.25-1.27-.61-1.71-1.08-.45-.47-.67-1.18-.67-2.12,0-.89.27-1.61.82-2.16.55-.55,1.27-.82,2.16-.82h8.2c.84,0,1.73.31,2.65.93.92.62,1.68,1.35,2.27,2.2.4.55.77.82,1.12.82.3,0,.62-.25.97-.75,1.14-1.54,2.46-2.65,3.95-3.32,1.49-.67,3.15-1.01,4.99-1.01,2.19,0,4.14.46,5.85,1.38,1.71.92,3.17,2.17,4.36,3.76,1.19,1.59,2.1,3.43,2.72,5.52.62,2.09.93,4.32.93,6.71v16.54ZM725.19,735.45c-1.47,0-2.77-.28-3.91-.85-1.13-.56-2.12-1.27-2.97-2.12-.85-.85-1.59-1.73-2.21-2.64-.63-.9-1.17-1.75-1.62-2.55l-11.22-18.19c-.79-1.47-1.93-2.21-3.4-2.21-1.02,0-1.98.46-2.89,1.36l-4.93,4.93c-1.13,1.14-2.01,2.47-2.63,4-.63,1.53-.94,3.09-.94,4.67v3.4c0,3.06-.93,5.53-2.8,7.4-1.87,1.87-4.34,2.8-7.4,2.8h-10.2c-3.06,0-5.52-.93-7.39-2.8-1.87-1.87-2.81-4.34-2.81-7.4v-98.6c0-3.06.94-5.52,2.81-7.39,1.87-1.87,4.33-2.81,7.39-2.81h10.2c3.06,0,5.53.94,7.4,2.81,1.87,1.87,2.8,4.33,2.8,7.39v47.26c0,1.82.4,2.72,1.19,2.72.57,0,1.3-.45,2.21-1.36l16.15-17.51c1.7-1.81,3.12-3.2,4.25-4.16,1.13-.96,2.18-1.67,3.15-2.13.96-.45,1.87-.73,2.72-.85.85-.11,1.78-.17,2.8-.17h21.42c1.25,0,2.27.34,3.06,1.02.79.68,1.33,1.51,1.62,2.47.28.96.31,1.95.08,2.97-.23,1.02-.74,1.93-1.53,2.72l-20.74,20.74c-1.13,1.14-1.76,2.41-1.87,3.83-.11,1.42.28,2.75,1.19,3.99l24.65,37.06c.79,1.25,1.08,2.47.85,3.66s-.76,2.27-1.61,3.23c-.85.96-1.96,1.76-3.32,2.38-1.36.62-2.83.93-4.42.93h-15.13ZM781,882.36c-4,4.6-9.7,6.89-17.1,6.89s-13.1-2.3-17.1-6.89c-4-4.6-6-11.37-6-20.31s2-15.71,6-20.31c4-4.59,9.7-6.89,17.1-6.89s13.1,2.3,17.1,6.89c4,4.6,6,11.37,6,20.31s-2,15.71-6,20.31ZM889.32,883.66c0,1.34-.41,2.42-1.23,3.24s-1.9,1.23-3.24,1.23h-4.47c-1.34,0-2.42-.41-3.24-1.23s-1.23-1.9-1.23-3.24v-13.94c0-.99-.1-1.96-.3-2.91-.2-.94-.51-1.76-.93-2.46-.42-.69-.96-1.25-1.6-1.68-.65-.42-1.42-.63-2.31-.63-1.89,0-3.23.81-4.02,2.42-.79,1.62-1.22,3.54-1.27,5.78v13.42c0,1.34-.41,2.42-1.23,3.24s-1.9,1.23-3.24,1.23h-4.47c-1.34,0-2.42-.41-3.24-1.23-.82-.82-1.23-1.9-1.23-3.24v-24.82c0-.4-.09-.75-.26-1.04-.17-.3-.54-.55-1.08-.75-.7-.25-1.27-.61-1.71-1.08-.09-.1-.17-.22-.25-.34l-9.59,28.02c-.4,1.24-1.14,2.3-2.24,3.17-1.09.87-2.31,1.3-3.65,1.3h-5.51c-1.34,0-2.56-.43-3.65-1.3-1.09-.87-1.84-1.92-2.24-3.17l-2.68-8.05c-.2-.65-.45-.97-.75-.97s-.55.32-.75.97l-2.76,8.05c-.4,1.24-1.14,2.3-2.24,3.17-1.09.87-2.31,1.3-3.65,1.3h-5.51c-1.34,0-2.56-.43-3.65-1.3-1.09-.87-1.84-1.92-2.24-3.17l-9.69-28.32c-.4-1.24-.21-2.3.56-3.17.77-.87,1.83-1.3,3.17-1.3h4.92c1.34,0,2.45.44,3.32,1.3.87.87,1.5,1.93,1.9,3.17l3.8,12.15c.25.65.47.97.67.97.3,0,.52-.32.67-.97l3.73-12.15c.4-1.24,1.03-2.3,1.9-3.17.87-.87,1.97-1.3,3.32-1.3h4.99c1.04,0,1.94.3,2.68.89,1.14.8,1.96,1.99,2.46,3.58l3.8,12.15c.25.65.47.97.67.97.3,0,.52-.32.67-.97l3.73-12.15c.4-1.24,1.03-2.3,1.9-3.17s1.98-1.3,3.32-1.3h4.99c1.34,0,2.4.44,3.17,1.3.11.13.19.27.27.4.14-.33.33-.63.58-.89.55-.55,1.27-.82,2.16-.82h8.2c.84,0,1.73.31,2.65.93.92.62,1.68,1.35,2.27,2.2.4.55.77.82,1.12.82.3,0,.62-.25.97-.75,1.14-1.54,2.46-2.65,3.95-3.32,1.49-.67,3.15-1.01,4.99-1.01,2.19,0,4.14.46,5.85,1.38,1.71.92,3.17,2.17,4.36,3.76,1.19,1.59,2.1,3.43,2.72,5.52.62,2.09.93,4.32.93,6.71v16.54ZM931.16,884.55c-.27.79-.81,1.37-1.6,1.71-1.89.8-4.01,1.49-6.37,2.09-2.36.6-5.23.89-8.61.89-6.51,0-11.48-1.75-14.91-5.25-3.43-3.5-5.14-8.33-5.14-14.5,0-2.98.42-5.68,1.27-8.09.84-2.41,2.06-4.48,3.65-6.22,1.59-1.74,3.51-3.08,5.78-4.02,2.26-.94,4.81-1.42,7.64-1.42s5.38.31,7.49.93c2.11.62,3.86,1.48,5.25,2.57,1.39,1.09,2.42,2.37,3.09,3.84.67,1.47,1.01,3.04,1.01,4.73,0,2.14-.38,3.96-1.16,5.48-.77,1.52-1.84,2.75-3.2,3.69-1.37.94-2.98,1.63-4.84,2.05-1.86.42-3.91.63-6.15.63-.45,0-.91-.01-1.38-.04-.47-.02-.96-.06-1.45-.11-.7-.1-1.14.01-1.34.34-.2.32-.05.71.45,1.16.69.7,1.53,1.18,2.5,1.45.97.27,1.97.41,3.02.41,1.79,0,3.48-.2,5.07-.6,1.59-.4,3.13-.92,4.62-1.57.4-.2.82-.3,1.27-.3.6,0,1.13.19,1.6.56.47.37.78.86.93,1.45l1.56,5.66c.25.85.24,1.67-.04,2.46ZM976.44,887.31c-.55.55-1.27.82-2.16.82h-8.2c-.89,0-1.8-.31-2.72-.93-.92-.62-1.68-1.38-2.27-2.27-.35-.6-.7-.89-1.04-.89-.3,0-.62.25-.97.75-2.04,2.98-5.04,4.47-9.02,4.47-2.04,0-3.96-.47-5.78-1.42-1.81-.94-3.39-2.29-4.73-4.02-1.34-1.74-2.41-3.81-3.2-6.22-.79-2.41-1.19-5.1-1.19-8.09s.4-5.68,1.19-8.09c.79-2.41,1.86-4.48,3.2-6.22,1.34-1.74,2.92-3.08,4.73-4.02,1.81-.94,3.74-1.42,5.78-1.42,3.92,0,6.91,1.44,8.94,4.32.75,1.09,1.12.99,1.12-.3v-13.34c0-1.34.41-2.42,1.23-3.24s1.9-1.23,3.24-1.23h4.47c1.34,0,2.42.41,3.24,1.23s1.23,1.9,1.23,3.24v39.72c0,.4.09.75.26,1.04.17.3.53.55,1.08.75.7.25,1.27.61,1.71,1.08.45.47.67,1.18.67,2.12s-.27,1.62-.82,2.16ZM1025.7,871.81c0,.89-.27,1.62-.82,2.16-.55.55-1.27.82-2.16.82h-20.12c-.89,0-1.62-.27-2.16-.82-.55-.55-.82-1.27-.82-2.16v-2.98c0-.89.27-1.61.82-2.16s1.27-.82,2.16-.82h20.12c.89,0,1.61.27,2.16.82.55.55.82,1.27.82,2.16v2.98ZM1035.61,664.22l-3.4,11.39c-.79,2.5-1.84,4.03-3.14,4.59-1.31.57-2.64.74-4,.51-1.7-.34-3.26-.79-4.67-1.36-1.42-.56-2.89-1.1-4.42-1.61s-3.18-.94-4.93-1.28c-1.76-.34-3.83-.51-6.21-.51-5.21,0-8.95,1.76-11.22,5.27-2.27,3.52-3.46,8.05-3.57,13.6v30.43c0,3.06-.93,5.53-2.8,7.4s-4.34,2.8-7.4,2.8h-10.2c-3.06,0-5.52-.93-7.39-2.8-1.87-1.87-2.81-4.34-2.81-7.4v-56.61c0-.9-.2-1.7-.59-2.38-.4-.68-1.22-1.24-2.47-1.7-1.59-.56-2.89-1.38-3.91-2.46-1.02-1.08-1.53-2.69-1.53-4.85,0-2.04.62-3.68,1.87-4.93,1.25-1.24,2.89-1.87,4.93-1.87h18.7c2.04,0,4.11.71,6.21,2.13,2.09,1.42,3.82,3.09,5.18,5.01.91,1.25,1.7,1.87,2.38,1.87s1.42-.56,2.21-1.7c2.61-3.62,5.67-6.17,9.18-7.65,3.51-1.47,7.31-2.21,11.39-2.21,3.85,0,7.2.51,10.03,1.53,2.83,1.02,5.78,2.78,8.84,5.27,1.81,1.48,3.03,2.95,3.66,4.42.62,1.48.65,3.18.08,5.1ZM1042.92,692.95c0-6.8.91-12.94,2.72-18.44,1.81-5.5,4.25-10.23,7.31-14.2,3.06-3.96,6.66-7.02,10.8-9.18,4.13-2.15,8.52-3.23,13.17-3.23,8.95,0,15.75,3.29,20.4,9.86,1.7,2.5,2.55,2.27,2.55-.68v-30.43c0-3.06.94-5.52,2.81-7.39,1.87-1.87,4.33-2.81,7.39-2.81h10.2c3.06,0,5.53.94,7.4,2.81,1.87,1.87,2.8,4.33,2.8,7.39v90.61c0,.91.2,1.7.6,2.38.39.68,1.21,1.25,2.46,1.7,1.59.57,2.89,1.39,3.91,2.47,1.02,1.08,1.53,2.69,1.53,4.84s-.62,3.69-1.87,4.93c-1.25,1.25-2.89,1.87-4.93,1.87h-18.7c-2.04,0-4.11-.7-6.2-2.12-2.1-1.42-3.83-3.15-5.19-5.19-.79-1.36-1.59-2.04-2.38-2.04-.68,0-1.42.57-2.21,1.7-4.65,6.8-11.5,10.2-20.57,10.2-4.65,0-9.04-1.07-13.17-3.23-4.14-2.15-7.74-5.21-10.8-9.18-3.06-3.96-5.5-8.69-7.31-14.19-1.81-5.5-2.72-11.65-2.72-18.45ZM1084.35,886.42c-1.14,1.14-2.66,1.71-4.55,1.71h-21.31c-2.24,0-4.04-.68-5.4-2.05-1.37-1.37-2.05-3.17-2.05-5.4v-37.71c0-2.09.64-3.78,1.94-5.07,1.29-1.29,3.03-1.94,5.22-1.94s3.78.65,5.07,1.94,1.94,2.98,1.94,5.07v28.77c0,1.14.33,2.05,1.01,2.72s1.58,1.01,2.72,1.01h10.88c1.89,0,3.4.58,4.55,1.75,1.14,1.17,1.71,2.72,1.71,4.66s-.57,3.4-1.71,4.55ZM1126.42,884.55c-.27.79-.81,1.37-1.6,1.71-1.89.8-4.01,1.49-6.37,2.09-2.36.6-5.23.89-8.61.89-6.51,0-11.48-1.75-14.91-5.25-3.43-3.5-5.14-8.33-5.14-14.5,0-2.98.42-5.68,1.27-8.09.84-2.41,2.06-4.48,3.65-6.22,1.59-1.74,3.51-3.08,5.78-4.02,2.26-.94,4.81-1.42,7.64-1.42s5.38.31,7.49.93c2.11.62,3.86,1.48,5.25,2.57,1.39,1.09,2.42,2.37,3.09,3.84.67,1.47,1.01,3.04,1.01,4.73,0,2.14-.38,3.96-1.16,5.48-.77,1.52-1.84,2.75-3.2,3.69-1.37.94-2.98,1.63-4.84,2.05-1.86.42-3.91.63-6.15.63-.45,0-.91-.01-1.38-.04-.47-.02-.96-.06-1.45-.11-.7-.1-1.14.01-1.34.34-.2.32-.05.71.45,1.16.69.7,1.53,1.18,2.5,1.45.97.27,1.97.41,3.02.41,1.79,0,3.48-.2,5.07-.6,1.59-.4,3.13-.92,4.62-1.57.4-.2.82-.3,1.27-.3.6,0,1.13.19,1.6.56.47.37.78.86.93,1.45l1.56,5.66c.25.85.24,1.67-.04,2.46ZM1148.22,887.31c-.55.55-1.27.82-2.16.82h-8.2c-.65,0-1.33-.19-2.05-.56-.72-.37-1.37-.84-1.94-1.42-.57-.57-1.04-1.22-1.42-1.94-.37-.72-.56-1.4-.56-2.05v-41.74c0-1.34.41-2.42,1.23-3.24.82-.82,1.9-1.23,3.24-1.23h4.47c1.34,0,2.42.41,3.24,1.23.82.82,1.23,1.9,1.23,3.24v39.72c0,.4.09.75.26,1.04.17.3.53.55,1.08.75.7.25,1.27.61,1.71,1.08.45.47.67,1.18.67,2.12s-.27,1.62-.82,2.16ZM1191.07,887.31c-.55.55-1.27.82-2.16.82h-8.2c-.89,0-1.8-.31-2.72-.93-.92-.62-1.68-1.35-2.27-2.2-.4-.55-.75-.82-1.04-.82s-.62.25-.97.75c-.99,1.34-2.22,2.4-3.69,3.17-1.47.77-3.32,1.16-5.55,1.16-1.69,0-3.29-.22-4.81-.67-1.52-.45-2.83-1.14-3.95-2.09-1.12-.94-2.01-2.17-2.68-3.69-.67-1.51-1.01-3.34-1.01-5.48,0-4.07,1.38-7.1,4.14-9.09,2.76-1.99,6.42-2.98,10.99-2.98,1.79,0,3.58-.07,5.37-.22.75-.1,1.3-.41,1.68-.93.37-.52.36-1.03-.04-1.53-.55-.7-1.35-1.2-2.42-1.53-1.07-.32-2.25-.48-3.54-.48-1.49,0-2.9.21-4.21.63-1.32.42-2.72.96-4.21,1.6-.4.2-.82.3-1.27.3-.55,0-1.04-.19-1.49-.56-.45-.37-.8-.86-1.04-1.45l-1.56-4.17c-.3-.84-.3-1.66,0-2.46.3-.79.84-1.37,1.64-1.71.94-.4,1.88-.78,2.79-1.16.92-.37,1.88-.69,2.87-.97.99-.27,2.09-.48,3.28-.63,1.19-.15,2.53-.22,4.02-.22,3.38,0,6.29.37,8.72,1.12,2.43.75,4.42,1.83,5.96,3.24s2.67,3.18,3.39,5.29c.72,2.11,1.08,4.51,1.08,7.19v13.56c0,.4.09.75.26,1.04.17.3.53.55,1.08.75.7.25,1.27.61,1.71,1.08.45.47.67,1.18.67,2.12s-.27,1.62-.82,2.16ZM1193.37,633.45c0-5.1,1.56-9.2,4.67-12.32,3.12-3.12,7.23-4.68,12.33-4.68h27.71c15.98,0,27.96,3.18,35.95,9.52,7.99,6.35,11.99,15.19,11.99,26.52,0,4.54-.79,8.67-2.38,12.41-1.59,3.74-3.85,7.09-6.8,10.03,3.97,3.06,7.06,6.63,9.26,10.71,2.21,4.08,3.32,8.67,3.32,13.77,0,11.22-4,20.04-11.98,26.44-8,6.4-20.26,9.6-36.81,9.6h-30.26c-5.1,0-9.21-1.55-12.33-4.67-3.11-3.12-4.67-7.23-4.67-12.33v-85ZM1234.37,883.66c0,1.34-.41,2.42-1.23,3.24s-1.9,1.23-3.24,1.23h-4.47c-1.34,0-2.42-.41-3.24-1.23s-1.23-1.9-1.23-3.24v-13.94c0-.99-.1-1.96-.3-2.91-.2-.94-.51-1.76-.93-2.46-.42-.69-.96-1.25-1.6-1.68-.65-.42-1.42-.63-2.31-.63-1.89,0-3.23.81-4.02,2.42-.79,1.62-1.22,3.54-1.27,5.78v13.42c0,1.34-.41,2.42-1.23,3.24s-1.9,1.23-3.24,1.23h-4.47c-1.34,0-2.42-.41-3.24-1.23-.82-.82-1.23-1.9-1.23-3.24v-24.82c0-.4-.09-.75-.26-1.04-.17-.3-.54-.55-1.08-.75-.7-.25-1.27-.61-1.71-1.08-.45-.47-.67-1.18-.67-2.12,0-.89.27-1.61.82-2.16.55-.55,1.27-.82,2.16-.82h8.2c.84,0,1.73.31,2.65.93.92.62,1.68,1.35,2.27,2.2.4.55.77.82,1.12.82.3,0,.62-.25.97-.75,1.14-1.54,2.46-2.65,3.95-3.32,1.49-.67,3.15-1.01,4.99-1.01,2.19,0,4.14.46,5.85,1.38,1.71.92,3.17,2.17,4.36,3.76,1.19,1.59,2.1,3.43,2.72,5.52.62,2.09.93,4.32.93,6.71v16.54ZM1280.88,887.31c-.55.55-1.27.82-2.16.82h-8.2c-.89,0-1.8-.31-2.72-.93-.92-.62-1.68-1.38-2.27-2.27-.35-.6-.7-.89-1.04-.89-.3,0-.62.25-.97.75-2.04,2.98-5.04,4.47-9.02,4.47-2.04,0-3.96-.47-5.78-1.42-1.81-.94-3.39-2.29-4.73-4.02s-2.41-3.81-3.21-6.22c-.79-2.41-1.19-5.1-1.19-8.09s.4-5.68,1.19-8.09c.79-2.41,1.86-4.48,3.21-6.22s2.92-3.08,4.73-4.02c1.81-.94,3.74-1.42,5.78-1.42,3.92,0,6.91,1.44,8.94,4.32.75,1.09,1.12.99,1.12-.3v-13.34c0-1.34.41-2.42,1.23-3.24s1.9-1.23,3.24-1.23h4.47c1.34,0,2.42.41,3.24,1.23s1.23,1.9,1.23,3.24v39.72c0,.4.09.75.26,1.04.17.3.53.55,1.08.75.7.25,1.27.61,1.71,1.08.45.47.67,1.18.67,2.12s-.27,1.62-.82,2.16ZM1296.34,891.56c-1.17,2.53-3.04,5.02-5.63,7.45-.5.5-1.09.75-1.79.75s-1.32-.25-1.86-.75c-.55-.45-.83-.98-.86-1.6-.03-.62.19-1.23.63-1.83,1.29-1.84,2.16-4,2.61-6.48-1.69-.25-2.91-.89-3.65-1.94-.75-1.04-1.12-2.58-1.12-4.62,0-2.38.52-4.1,1.57-5.14,1.04-1.04,2.76-1.57,5.14-1.57s4.1.52,5.14,1.57,1.56,2.76,1.56,5.14c0,3.48-.58,6.48-1.75,9.02ZM1305.99,730.78c-3.11-3.12-4.67-7.23-4.67-12.33v-85c0-5.1,1.56-9.2,4.67-12.32,3.12-3.12,7.23-4.68,12.33-4.68h27.71c15.98,0,27.96,3.18,35.95,9.52,7.99,6.35,11.99,15.19,11.99,26.52,0,4.54-.8,8.67-2.38,12.41-1.59,3.74-3.86,7.09-6.8,10.03,3.96,3.06,7.05,6.63,9.26,10.71,2.21,4.08,3.32,8.67,3.32,13.77,0,11.22-4,20.04-11.99,26.44-7.99,6.4-20.26,9.6-36.8,9.6h-30.26c-5.1,0-9.21-1.55-12.33-4.67ZM1365.91,881.95c0,1.89-.57,3.39-1.71,4.51-1.14,1.12-2.66,1.68-4.55,1.68s-3.7-.46-5.44-1.38c-1.74-.92-3.11-2.17-4.1-3.76l-10.51-16.32c-.55-.84-.99-1.27-1.34-1.27-.45,0-.67.62-.67,1.86v13.86c0,2.09-.65,3.78-1.94,5.07s-3.03,1.94-5.22,1.94-3.78-.65-5.07-1.94c-1.29-1.29-1.94-2.98-1.94-5.07v-39.13c0-1.79.55-3.24,1.64-4.36,1.09-1.12,2.58-1.68,4.47-1.68,1.79,0,3.55.46,5.29,1.38,1.74.92,3.1,2.12,4.1,3.62l10.73,16.32c.6.84,1.07,1.27,1.42,1.27.45,0,.67-.62.67-1.86v-13.71c0-2.09.64-3.78,1.94-5.07,1.29-1.29,3.03-1.94,5.22-1.94s3.78.65,5.07,1.94,1.94,2.98,1.94,5.07v38.98ZM1416.44,880.23c-1.54,2.68-3.93,4.86-7.15,6.52-3.23,1.66-7.43,2.5-12.6,2.5-3.18,0-6.26-.5-9.24-1.49-2.98-.99-5.63-2.57-7.94-4.73-2.31-2.16-4.16-4.97-5.55-8.42-1.39-3.45-2.09-7.64-2.09-12.56,0-4.57.58-8.56,1.75-11.96,1.17-3.4,2.78-6.23,4.84-8.5,2.06-2.26,4.53-3.95,7.42-5.07,2.88-1.12,6.04-1.68,9.46-1.68,5.27,0,9.43.83,12.48,2.5,3.05,1.67,5.35,3.84,6.89,6.52.84,1.49.98,3.13.41,4.92-.57,1.79-1.75,3.25-3.54,4.4-1.14.7-2.26,1.04-3.35,1.04-1.99,0-3.78-.97-5.37-2.91-.95-1.14-1.94-2-2.98-2.57-1.04-.57-2.26-.86-3.65-.86s-2.61.24-3.8.71c-1.19.47-2.24,1.27-3.13,2.38s-1.6,2.58-2.12,4.4-.78,4.04-.78,6.67c0,3.08.35,5.56,1.04,7.45.7,1.89,1.55,3.34,2.57,4.36,1.02,1.02,2.09,1.69,3.21,2.01,1.12.32,2.12.48,3.02.48,1.19,0,2.21-.09,3.05-.26.84-.17,1.58-.41,2.2-.71.62-.3,1.18-.67,1.68-1.12.5-.45.97-.94,1.42-1.49,1.59-1.94,3.38-2.91,5.37-2.91,1.09,0,2.21.35,3.35,1.04,1.79,1.14,2.97,2.61,3.54,4.4.57,1.79.43,3.43-.41,4.92ZM1515.86,755.17c-.68,1.82-1.7,3.51-3.06,5.1-1.36,1.59-3.18,2.89-5.44,3.91-4.65,2.04-8.56,3.51-11.73,4.42-3.18.91-6.58,1.36-10.2,1.36-6.12,0-11.56-.51-16.32-1.53-4.76-1.02-8.79-2.8-12.07-5.35-3.29-2.55-5.9-5.95-7.82-10.2-1.93-4.25-3.12-9.61-3.57-16.07-12.81-2.49-22.64-8.86-29.5-19.12-6.86-10.26-10.28-24.17-10.28-41.74,0-20.4,4.56-35.84,13.68-46.32,9.12-10.48,22.13-15.73,39.02-15.73s29.89,5.25,39.01,15.73c9.12,10.48,13.69,25.92,13.69,46.32,0,17.91-3.54,31.99-10.63,42.25-7.08,10.26-17.25,16.52-30.51,18.78.79,2.27,2.04,3.8,3.74,4.59s3.85,1.19,6.46,1.19c1.92,0,3.57-.14,4.93-.42,1.36-.29,2.6-.68,3.74-1.19,1.13-.51,2.18-1.08,3.14-1.7.96-.62,2.01-1.28,3.15-1.96,1.13-.68,2.4-1.24,3.82-1.7,1.42-.45,2.92-.68,4.51-.68,2.26,0,4.53.68,6.8,2.04,2.26,1.36,4.08,3.8,5.44,7.31.56,1.59.87,3.32.93,5.19s-.25,3.71-.93,5.52ZM1654.56,659.18l-25.74,18.7c-4.45,3.23-6.7,10.16-5,15.39l9.83,30.26c1.7,5.23-.55,6.86-5,3.63l-25.74-18.7c-4.45-3.24-11.73-3.24-16.18,0l-25.74,18.7c-4.45,3.23-6.7,1.6-5-3.63l9.83-30.26c1.7-5.23-.55-12.16-5-15.39l-25.74-18.7c-4.45-3.24-3.59-5.88,1.91-5.88h31.82c5.5,0,11.39-4.28,13.09-9.51l9.83-30.26c1.7-5.23,4.48-5.23,6.18,0l9.83,30.26c1.7,5.23,7.59,9.51,13.09,9.51h31.82c5.5,0,6.36,2.64,1.91,5.88ZM1655.91,375.69c-1.59,1.25-3.33,2.09-5.18,2.5-1.86.42-3.31-.62-4.37-3.13-1.06-2.07-4.64-3.84-10.75-5.29-6.11-1.46-15.25-2.4-27.46-2.82-9.01,12.49-19.89,26.12-32.63,40.89-12.74,14.77-24.95,29.34-36.61,43.69-11.68,14.36-21.63,27.68-29.85,39.95-8.22,12.28-12.33,22.16-12.33,29.65,0,2.5,1.58,3.74,4.77,3.74,4.23,0,8.36-.19,12.34-.59,3.98-.38,8.09-.59,12.33-.59,1.59,0,5.03.22,10.35.64,5.31.42,7.96,1.69,7.96,3.79,0,4.65-3.18,9.29-9.55,13.93-6.37,4.64-13.81,8.75-22.3,12.34-8.49,3.59-17.13,6.43-25.93,8.54-8.8,2.11-15.6,3.16-20.41,3.16-14.95,0-26.17-3.59-33.64-10.76-7.47-7.18-11.21-16.26-11.21-27.25-5.83,5.91-11.13,10.98-15.9,15.19-4.78,4.22-8.48,7.17-11.12,8.85-6.36,4.23-13.25,7.7-20.67,10.45-7.43,2.74-15.37,4.11-23.85,4.11-11.13,0-20.66-3.16-28.62-9.49-7.94-6.33-11.92-14.34-11.92-24.05,0-11.31,3.87-23.44,11.57-36.37,7.72-12.92,16.22-25.43,25.53-37.52,9.3-12.09,17.81-22.72,25.53-31.9,7.71-9.16,11.57-15.63,11.57-19.38,0-5.84,2.11-9.79,6.32-11.88,4.22-2.08,9.23-3.13,15.04-3.13,7.9,0,15.81,2.3,23.72,6.88,7.92,4.58,11.88,10.43,11.88,17.51,0,7.51-3.33,16.47-9.95,26.89-6.63,10.42-14.07,20.84-22.29,31.27-8.22,10.42-15.66,20.01-22.28,28.77-6.64,8.76-9.96,14.79-9.96,18.13,0,1.25.53,1.87,1.59,1.87,5.31,0,11.14-2.08,17.51-6.24,6.37-4.15,12.87-9.04,19.5-14.65,6.63-5.61,12.87-11.23,18.72-16.84,5.85-5.61,10.92-10.08,15.23-13.41,3.22-4.57,6.44-8.83,9.67-12.78,3.23-3.95,6.2-7.59,8.89-10.93,11.21-12.88,22.25-25.77,33.13-38.66,10.88-12.89,21.63-25.99,32.24-39.29h-2.39c-5.83.83-15.39,2.4-28.66,4.69-13.27,2.3-26.87,3.75-40.82,4.38-13.96.62-26.1-.42-36.46-3.13-10.35-2.7-14.98-8.65-13.92-17.83,0-4.58,1.45-9.06,4.38-13.44,2.92-4.38,6.5-8.24,10.74-11.58,4.24-3.33,9.17-5.94,14.78-7.82,5.61-1.88,11.1-2.81,16.49-2.81,6.45,0,11.68,1.56,15.7,4.69s6.03,7.19,6.03,12.2c0,3.75-1.33,8.12-3.98,13.13,7.44.84,16.19.42,26.29-1.25,10.08-1.67,21.49-3.13,34.23-4.38,2.12-.42,4.9-.73,8.35-.94,3.44-.2,7.29-.73,11.54-1.57,4.78-4.58,8.37-8.86,10.75-12.82,2.39-3.96,4.11-8.86,5.18-14.7-1.07-1.67-.94-3.33.39-5.01,1.32-1.66,3.18-2.92,5.57-3.75,2.39-.83,4.91-1.57,7.57-2.19,2.64-.63,4.77-.94,6.37-.94,7.95,0,15.9,2.09,23.86,6.25,7.96,4.16,11.95,10.19,11.95,18.09,0,3.33-.8,6.87-2.39,10.61,9.01.84,16.98,2.29,23.87,4.37,6.9,2.08,11.41,5.62,13.54,10.61,2.65,7.91.8,14.36-5.57,19.35Z"/><path d="M1107.72,865.4c.42.05.83.07,1.23.07,1.44,0,2.42-.26,2.94-.78s.78-1.13.78-1.83c0-.6-.27-1.13-.82-1.6-.55-.47-1.24-.71-2.09-.71-1.04,0-1.93.2-2.65.6-.72.4-1.33.89-1.83,1.49-.4.55-.5,1.07-.3,1.57.2.5.64.82,1.34.97.5.1.96.17,1.38.22Z"/><path d="M1473.27,700.69c3.23-5.04,4.85-13.29,4.85-24.74s-1.62-19.69-4.85-24.73c-3.23-5.04-8.13-7.57-14.7-7.57s-11.48,2.53-14.71,7.57c-3.23,5.04-4.84,13.29-4.84,24.73s1.61,19.7,4.84,24.74c3.23,5.04,8.13,7.56,14.71,7.56s11.47-2.52,14.7-7.56Z"/><path d="M1364.22,697.71c0-2.94-1.42-5.18-4.25-6.71-2.84-1.53-6.8-2.3-11.9-2.3h-5.95c-2.61,0-4.68.83-6.21,2.47-1.53,1.64-2.29,3.94-2.29,6.88,0,2.61.76,4.68,2.29,6.21,1.53,1.53,3.6,2.29,6.21,2.29h5.95c5.21,0,9.21-.76,11.98-2.29,2.78-1.53,4.17-3.71,4.17-6.55Z"/><path d="M848.57,852.57c-.15.38-.24.8-.24,1.28,0,.74.14,1.34.42,1.79l.1-.3c.34-1.06.23-1.98-.29-2.77Z"/></svg>