<?xml version="1.0" encoding="UTF-8"?><svg id="a" xmlns="http://www.w3.org/2000/svg" width="2650.79" height="544.07" viewBox="0 0 2650.79 544.07"><path d="M1773.83,267.99c33.84-6.76,53.82-33.22,53.82-65.2,0-58.75-59.06-73.51-105.81-73.51h-174.12l.31,53.52h201.55c7.48,0,13.54,6.05,13.54,13.52s-6.06,13.54-13.54,13.54h-201.55v125.19h63.68v-67.05h85.62l12.2,12.61,45.83,54.44h85.22l-66.76-67.05ZM232.24,229.25c14.14-5.24,27.99-18.77,27.99-43.07,0-33.15-24.35-51.9-63.5-56.03l.06-.1h-1.28c-5.17-.49-10.54-.77-16.19-.77H0v53.52h182.09c8.93,0,17.85,3.08,17.85,13.23s-8.61,13.83-17.85,13.83H0v43.99h181.16c13.85,0,19.7,4.93,19.7,13.84,0,9.55-5.85,14.45-19.7,14.45H0v52.92h180.85c64.91,0,83.69-25.85,83.69-59.99,0-24.61-14.46-40.62-32.3-45.83ZM490.91,129.31v115.96c0,28.91-15.38,40.29-64.27,40.29-65.53,0-78.45-9.83-78.45-40.29v-115.96h-63.37v115.96c0,62.14,42.76,93.2,141.82,93.2,85.52,0,128.26-31.06,128.26-93.2v-115.96h-63.99ZM645.62,282.15v-152.87h-63.68v205.77h216.02v-52.9h-152.34ZM892.9,282.15v-152.87h-63.66v205.77h216v-52.9h-152.34ZM1855.34,129.28v205.77h63.68v-205.77h-63.68ZM2185.6,165.74c-22.09-22.82-56.77-36.46-98.02-36.46h-137.82v53.52h137.82c34.44,0,60.89,21.22,60.89,50.13s-25.53,49.22-60.89,49.22h-73.83v-75.36h-63.99v128.26h137.82c41.08,0,75.92-14.98,98.12-39.07,16.36-17.75,25.84-40.47,25.84-65.81s-9.47-47.45-25.93-64.43ZM2283.81,182.8h141.19v-53.52h-141.19c-41.13,0-76.03,13.49-98.21,36.46-16.31,16.89-25.76,38.89-25.76,64.43s9.48,48.05,25.85,65.81c22.18,24.09,57.04,39.07,98.12,39.07h141.19v-128.57h-101.36v45.83h38v29.84h-77.83c-35.37,0-60.59-19.38-60.59-49.22s26.14-50.13,60.59-50.13ZM2517.71,182.8l.21.39h132.87v-53.9h-198.11v205.79h198.11v-52.92h-134.12v-27.99h134.12v-46.76h-134.12v-24.6h1.04Z"/><path d="M1511.04,69.65c-13.73-27.78-39.01-37.56-49.23-40.47L1359.5,0l38.01,74.61-102.19,31.52-102.15-31.52L1231.3.08l-102.4,29.07c-10.24,2.92-35.54,12.68-49.3,40.49-6.46,13.06-12.21,34.34-2.96,61.59,6.93,20.44,21.84,37.2,43.34,48.82v154.25l175.35,81.15,175.34-81.15v-154.25c21.5-11.62,36.41-28.38,43.34-48.84,1.02-3.01,3.72-10.99,4.57-21.26,1.17-14.04-1.45-27.99-7.55-40.3ZM1470.11,116.36c-8.53,25.19-45.79,31.51-45.79,31.51v156.81l-128.98,59.69-129.01-59.69v-156.8s-37.25-6.33-45.78-31.52c-1.3-3.84-5.02-14.82.61-26.17,5.98-12.1,18.14-15.8,20.4-16.44-1.25,2.44-4.23,9.1-2.63,17.3,1.01,5.08,3.33,8.48,4.46,10.1,7.23,10.36,19.25,13.03,22.95,13.7l129.01,39.8,128.98-39.8c3.69-.66,15.73-3.34,22.96-13.7,1.12-1.61,3.44-5.02,4.45-10.1,1.62-8.2-1.38-14.86-2.62-17.3,2.24.64,14.42,4.34,20.4,16.44,5.62,11.35,1.91,22.33.61,26.17Z"/><path d="M533.06,536.46h-13.85v-85.45h13.85v85.45Z"/><path d="M647.9,536.46h-16.44l-33.02-53.86-8.29-15.8h-.13l.52,14.5v55.15h-12.69v-85.45h16.31l32.89,53.73,8.42,15.92h.13l-.52-14.5v-55.16h12.82v85.45Z"/><path d="M755.88,467.06l-10.49,9.45c-4.79-10.23-11.39-14.76-23.56-14.76s-18.77,5.44-18.77,12.69c0,6.86,5.31,10.49,21.88,13.46,22.92,4.01,31.33,11.13,31.33,24.86,0,15.28-13.85,24.99-34.05,24.99-18.64,0-30.17-6.73-36.77-17.35l9.71-9.71c5.57,10.36,14.11,15.02,26.93,15.02s19.68-4.27,19.68-12.17c0-6.09-5.18-9.58-21.23-12.56-23.43-4.4-32.11-11.52-32.11-25.12,0-14.5,12.43-26.15,33.27-26.15,15.8,0,26.67,5.7,34.18,17.35Z"/><path d="M863.85,503.7c0,22.66-12.3,34.05-34.96,34.05s-34.96-11.39-34.96-34.05v-52.7h13.98v51.01c0,16.18,6.6,23.69,20.97,23.69s20.97-7.51,20.97-23.69v-51.01h13.98v52.7Z"/><path d="M939.59,502.28h-18.38v34.18h-13.72v-85.45h34.83c18.39,0,29.91,9.58,29.91,25.64,0,12.3-6.73,20.84-18.13,24.08l23.18,35.73h-15.93l-21.75-34.18ZM921.2,490.75h19.94c11.26,0,16.7-4.53,16.7-13.98s-5.44-13.98-16.7-13.98h-19.94v27.97Z"/><path d="M1062.19,514.06h-35.99l-8.16,22.4h-14.24l32.24-85.45h16.57l32.24,85.45h-14.63l-8.03-22.4ZM1058.05,502.79l-9.84-27.45-3.88-12.3h-.39l-3.62,12.04-10.1,27.71h27.84Z"/><path d="M1189.46,536.46h-16.44l-33.01-53.86-8.29-15.8h-.13l.52,14.5v55.15h-12.69v-85.45h16.31l32.88,53.73,8.42,15.92h.13l-.52-14.5v-55.16h12.82v85.45Z"/><path d="M1269.6,537.75c-24.73,0-40.27-16.83-40.27-44.02s15.67-44.02,40.14-44.02c16.96,0,29,7.12,34.18,20.97l-13.08,5.83c-3.37-10.1-9.71-14.76-20.33-14.76-15.92,0-26.41,11.65-26.41,31.98s9.71,31.98,25.89,31.98c10.88,0,18.77-5.44,22.01-16.31l13.21,4.4c-5.31,15.67-18.64,23.95-35.35,23.95Z"/><path d="M1405.8,524.55v11.91h-63.7v-85.45h61.89v11.91h-48.03v24.6h37.55v11.65h-37.55v25.38h49.85Z"/><path d="M1549.12,514.06h-35.99l-8.16,22.4h-14.24l32.24-85.45h16.57l32.24,85.45h-14.63l-8.03-22.4ZM1544.97,502.79l-9.84-27.45-3.88-12.3h-.39l-3.62,12.04-10.1,27.71h27.84Z"/><path d="M1674.96,492.31v44.15h-10.23l-.52-10.88c-4.79,7.64-13.46,12.17-26.02,12.17-23.95,0-39.62-16.57-39.62-44.02s16.05-44.02,40.65-44.02c17.74,0,28.61,6.34,35.22,20.2l-12.69,6.08c-3.37-9.45-11.52-14.24-22.27-14.24-16.05,0-26.41,11.65-26.41,31.98s9.19,32.11,26.67,32.11c12.95,0,22.92-6.47,22.92-19.68v-2.46h-26.15v-11.39h38.45Z"/><path d="M1780.22,524.55v11.91h-63.7v-85.45h61.89v11.91h-48.03v24.6h37.55v11.65h-37.55v25.38h49.85Z"/><path d="M1888.32,536.46h-16.44l-33.01-53.86-8.29-15.8h-.13l.52,14.5v55.15h-12.69v-85.45h16.31l32.89,53.73,8.42,15.92h.13l-.52-14.5v-55.16h12.82v85.45Z"/><path d="M1968.46,537.75c-24.73,0-40.27-16.83-40.27-44.02s15.67-44.02,40.14-44.02c16.96,0,29,7.12,34.18,20.97l-13.08,5.83c-3.37-10.1-9.71-14.76-20.33-14.76-15.92,0-26.41,11.65-26.41,31.98s9.71,31.98,25.89,31.98c10.88,0,18.77-5.44,22.01-16.31l13.21,4.4c-5.31,15.67-18.64,23.95-35.35,23.95Z"/><path d="M2072.55,503.7v32.76h-13.85v-32.76l-30.43-52.7h15.41l15.28,27.45,6.73,12.82,6.73-12.82,15.15-27.45h15.54l-30.56,52.7Z"/></svg>