<?xml version="1.0" encoding="UTF-8"?><svg id="a" xmlns="http://www.w3.org/2000/svg" width="2228" height="1015.66" viewBox="0 0 2228 1015.66"><path d="M149.01,640.83l16.8-1.68c11.2-1.68,13.44-4.48,13.44-17.92v-242.49l-29.68-2.24v-54.88h286.73v96.88l-70.56,4.48v-22.4c0-10.64-3.36-15.68-14.56-15.68h-75.6v92.96h133.29v67.76h-133.29v91.28l43.68,2.24v54.88h-170.25v-53.2Z"/><path d="M582.47,639.71l29.12,2.24v52.08h-153.45v-50.4l18.48-1.68c10.64-1.12,13.44-4.48,13.44-18.48v-257.61c0-11.76-3.36-15.68-13.44-16.24l-19.04-2.24v-52.64h124.88v344.97Z"/><path d="M827.75,694.6c-30.8,84.56-60.48,123.21-129.36,123.21-30.24,0-60.48-10.08-78.96-21.28l21.28-66.08c12.88,6.16,27.44,11.76,45.92,11.76,21.84,0,32.48-11.2,40.88-31.92l7.28-17.92-85.12-228.49-26.32-3.36v-52.64h149.53v53.76l-12.32,1.12c-7.84,1.12-11.76,6.72-8.96,16.8l33.6,115.37h1.68l39.76-131.05-20.72-1.68v-54.32h132.16v52.64l-12.32,1.12c-12.32,1.12-15.68,6.16-19.6,17.36l-78.4,215.61Z"/><path d="M951.51,415.14c41.44-9.52,61.04-38.08,72.8-72.8h51.52v65.52h65.52l-4.48,61.6h-61.04v120.41c0,30.8,5.6,39.76,31.92,39.76,13.44,0,25.76-3.36,34.72-8.4l12.88,62.72c-15.68,9.52-43.68,17.36-75.04,17.36-97.44,0-98.56-50.4-98.56-101.92v-129.93h-37.52l7.28-54.32Z"/><path d="M1300.96,516.51v122.65l48.72,2.8v52.08h-173.05v-50.4l18.48-1.68c11.2-.56,13.44-5.04,13.44-18.48v-145.05c0-11.2-3.36-15.12-12.88-16.24l-19.6-1.68v-52.64h117.05v43.12h1.12c8.96-20.72,31.92-50.96,80.08-50.96,15.68,0,36.4,2.24,51.52,8.4v110.88l-73.36,4.48v-38.64c0-7.84-.56-10.08-4.48-11.76-2.8-1.12-6.16-1.68-11.76-1.68-22.4,0-35.28,19.04-35.28,44.8Z"/><path d="M1712.02,625.71c0,11.76,2.8,15.68,12.88,16.24l14.56,1.12v50.96h-100.81l-3.92-26.32-1.68-.56c-14,21.28-39.2,34.16-71.68,34.16-85.12,0-112.01-63.28-112.01-137.77,0-98.56,50.96-163.53,154.57-163.53,20.16,0,63.28,3.92,108.09,21.28v204.41ZM1619.62,471.15c-6.16-2.8-15.68-4.48-25.76-4.48-40.32,0-50.96,43.12-50.96,90.16,0,42.56,7.84,77.84,41.44,77.84,22.96,0,35.28-15.68,35.28-33.04v-130.49Z"/><path d="M1790.98,478.43c0-11.2-4.48-15.68-13.44-16.24l-19.04-1.68v-52.64h117.61v31.92h1.68c16.24-28,45.36-39.76,76.72-39.76,62.16,0,100.24,47.04,100.24,139.45,0,98-38.64,161.85-122.08,161.85-16.8,0-35.28-3.92-48.72-10.08v63.28l50.96,3.36v52.08h-175.85v-50.4l18.48-1.68c10.64-1.12,13.44-4.48,13.44-18.48v-260.97ZM1884.51,626.27c9.52,5.6,20.72,8.4,29.68,8.4,36.96,0,46.48-35.84,46.48-82.32,0-35.28-4.48-83.44-42-83.44-22.96,0-34.16,17.92-34.16,32.48v124.89Z"/><path d="M898.88,819.32v46.36h-22.36v-125.92c14.91-.63,23.62-.95,26.15-.95,19.9,0,34.45,3.05,43.65,9.16,9.2,6.11,13.8,15.64,13.8,28.6,0,28.9-17.03,43.35-51.09,43.35-2.52,0-5.91-.2-10.15-.6ZM898.88,759.11v40.34c3.78.4,6.76.6,8.95.6,10.21,0,17.66-1.71,22.36-5.12,4.7-3.41,7.05-8.96,7.05-16.64,0-13.07-10.52-19.61-31.57-19.61-2.35,0-4.62.14-6.79.43Z"/><path d="M1031.86,793.61c-3.84-2.52-8.06-3.78-12.64-3.78-4.99,0-9.42,2.26-13.29,6.79-3.87,4.53-5.81,10.06-5.81,16.6v52.47h-21.5v-92.12h21.5v8.43c6.02-6.77,14.02-10.15,24-10.15,7.34,0,12.96,1.12,16.86,3.35l-9.12,18.41Z"/><path d="M1047.86,819.41c0-14.05,4.06-25.49,12.17-34.32,8.11-8.83,18.82-13.25,32.13-13.25,13.99,0,24.86,4.24,32.6,12.73,7.74,8.49,11.61,20.1,11.61,34.83s-3.94,26.35-11.83,35.01c-7.88,8.66-18.68,12.99-32.38,12.99s-24.87-4.37-32.64-13.12c-7.77-8.74-11.65-20.37-11.65-34.88ZM1070.22,819.41c0,20.3,7.31,30.45,21.93,30.45,6.71,0,12.03-2.64,15.96-7.91,3.93-5.28,5.89-12.79,5.89-22.53,0-20.01-7.28-30.02-21.85-30.02-6.71,0-12.04,2.64-16,7.91s-5.93,12.64-5.93,22.1Z"/><path d="M1173.35,863.36v38.45h-21.5v-128.24h21.5v6.19c5.39-5.28,12.01-7.91,19.87-7.91,29.36,0,44.04,16.17,44.04,48.51,0,15.08-4.06,26.69-12.17,34.83-8.12,8.14-19.19,12.21-33.24,12.21-6.77,0-12.93-1.35-18.49-4.04ZM1173.35,796.1v48.42c3.9,3.15,8.46,4.73,13.68,4.73,9.92,0,17.04-2.37,21.37-7.1,4.33-4.73,6.49-12.2,6.49-22.41,0-10.89-2.15-18.56-6.45-23.01-4.3-4.44-11.41-6.67-21.33-6.67-5.16,0-9.75,2.01-13.76,6.02Z"/><path d="M1338.4,826.2h-65.8c.4,7.34,2.92,13.05,7.57,17.12,4.64,4.07,10.89,6.11,18.75,6.11,9.81,0,17.26-2.55,22.36-7.66l8.34,16.43c-7.57,6.14-18.87,9.2-33.89,9.2-14.05,0-25.16-4.11-33.33-12.34-8.17-8.23-12.26-19.71-12.26-34.45s4.49-26.26,13.46-35.26c8.97-9,19.74-13.5,32.3-13.5,13.36,0,24.08,3.99,32.17,11.96,8.09,7.97,12.13,18.12,12.13,30.45,0,2.64-.6,6.62-1.81,11.96ZM1273.38,810.03h45.24c-1.49-13.48-8.95-20.21-22.36-20.21-12.27,0-19.9,6.74-22.88,20.21Z"/><path d="M1410.65,793.61c-3.84-2.52-8.06-3.78-12.64-3.78-4.99,0-9.42,2.26-13.29,6.79-3.87,4.53-5.81,10.06-5.81,16.6v52.47h-21.5v-92.12h21.5v8.43c6.02-6.77,14.02-10.15,24-10.15,7.34,0,12.96,1.12,16.86,3.35l-9.12,18.41Z"/><path d="M1435.94,790.85h-10.67v-17.29h10.67v-18.75l21.5-7.91v26.66h25.29v17.29h-25.29v40.34c0,6.59,1.03,11.25,3.1,13.98,2.06,2.72,5.68,4.09,10.84,4.09s9.98-1.4,14.45-4.21v19.78c-4.99,1.72-12.1,2.58-21.33,2.58s-16.23-2.59-21.16-7.78c-4.93-5.19-7.4-12.57-7.4-22.15v-46.62Z"/><path d="M1508.27,865.68v-74.49h-11.78v-17.63h33.54v92.12h-21.76ZM1519.37,737.87c3.44,0,6.38,1.22,8.82,3.66,2.44,2.44,3.66,5.38,3.66,8.82s-1.22,6.38-3.66,8.82c-2.44,2.44-5.38,3.66-8.82,3.66s-6.38-1.22-8.82-3.66c-2.44-2.44-3.66-5.38-3.66-8.82s1.22-6.38,3.66-8.82c2.44-2.44,5.38-3.66,8.82-3.66Z"/><path d="M1637.29,826.2h-65.8c.4,7.34,2.92,13.05,7.57,17.12,4.64,4.07,10.89,6.11,18.75,6.11,9.81,0,17.26-2.55,22.36-7.66l8.34,16.43c-7.57,6.14-18.87,9.2-33.89,9.2-14.05,0-25.16-4.11-33.33-12.34s-12.26-19.71-12.26-34.45,4.49-26.26,13.46-35.26c8.97-9,19.74-13.5,32.3-13.5,13.36,0,24.08,3.99,32.17,11.96,8.09,7.97,12.13,18.12,12.13,30.45,0,2.64-.6,6.62-1.81,11.96ZM1572.27,810.03h45.24c-1.49-13.48-8.95-20.21-22.36-20.21-12.27,0-19.9,6.74-22.88,20.21Z"/><path d="M1650.62,859.75l7.66-17.12c6.42,5.1,13.68,7.66,21.76,7.66s12.56-2.98,12.56-8.95c0-3.5-1.26-6.36-3.78-8.6-2.52-2.24-7.43-4.87-14.71-7.91-15.88-6.59-23.83-15.83-23.83-27.7,0-7.97,3.04-14.18,9.12-18.62,6.08-4.44,13.85-6.67,23.31-6.67s18.58,2.15,27.01,6.45l-6.19,16.69c-4.7-4.01-11.24-6.02-19.61-6.02-7.51,0-11.27,2.98-11.27,8.95,0,2.35,1.23,4.47,3.7,6.36,2.46,1.89,7.74,4.43,15.83,7.61,8.09,3.18,13.9,7.04,17.46,11.57,3.56,4.53,5.33,10.01,5.33,16.43,0,8.54-3.17,15.27-9.5,20.17-6.34,4.9-14.95,7.35-25.85,7.35-6.14,0-11.05-.5-14.75-1.51-3.7-1-8.44-3.05-14.23-6.15Z"/><path d="M301.94,254.28c4.83,14.48,10.88,28.72,17.52,42.83h-17.1c-2.82-7.74-5.66-15.49-8.67-23.13-5.12-12.89-23.38-40.92-5.93-51.73,13.04-8.06,24.38,4.75,32.66,13.55,17.05,18.08,34.48,40.19,50.87,61.31h-25.44c-11.57-15.02-23.33-29.99-35.04-44.06-7.16-8.63-15.24-17.86-8.87,1.23Z"/><path d="M95.96,384.62c2.28,4.12,4.78,8.28,7.65,12.03,10.98,14.34,27.54,33.23,40.02,46.46,3.41,3.63,7.16,7.33,11.12,11.13v25.14c-25.12-24.38-49.43-48.05-69.98-80.4-5.78-9.04-15.34-22.3-3.43-30.92,11.44-8.31,29.58.44,43.74,8.77v22.4l29.67,2.25v16.91c-6.44-4.34-12.91-8.58-19.48-12.69-4.61-2.89-37-22.91-39.31-21.07Z"/><path d="M22.2,542.92c14.26,10.49,29.01,20.44,44.13,29.65,24.26,14.78,50.85,29.85,77.12,44.18l-18.94,1.91v9.97c-25.88-14.16-51.41-28.82-76.26-44.35-10.95-6.84-41.68-25.97-46.26-36.41-5.59-12.79,1.05-22.76,14.6-24.55,28.18-3.68,63.15,17.4,90.81,24.7,14.41,3.82,32.08,7.69,47.34,10.61v20.78c-21.83-4.24-42.93-9.53-55.53-13.06-20.58-5.76-40.53-16.79-60.77-21.88-5.05-1.25-11.2-3.16-16.25-1.54Z"/><path d="M1544.14,890.19c-50.97,20.41-102.04,40.38-152.98,60.33-81.09,16.69-151.93,57.24-235.29,63.54-61.75,4.68-124.29-.56-182.8-20.63-47.64-16.32-96.42-29.31-144.04-45.46-69.91-23.74-147-55.97-215.47-84.64-64.27-26.91-128.23-56.58-191.65-85.57-41.83-19.11-85.69-38.15-126.83-59.23h46.14c21.25,10.27,42.61,20.27,64.15,29.97,138.3,62.31,284.81,128.94,427.82,178.78,24.72,8.6,51.14,13.92,76.33,21.59,59.55,18.16,104.63,38.18,168.81,43.57,103.58,8.7,172.63-23.3,267.39-51.75,17.45-5.27,33.94-8.43,51.46-14.68,31.02-11.1,62.93-23.26,94.73-35.83h52.22Z"/><path d="M2209.85,563.67c-43.47,31.78-104.07,63.54-152.15,89.46-.74.39-1.47.78-2.21,1.18,4.73-9.07,8.77-18.92,12.11-29.58,33.11-17.94,65.94-36.34,98.53-55.21l39.5-27.22c-28.65,1.98-54.28,17.86-82.11,25.31-11.1,2.96-28.16,7.2-46.39,10.9.78-6.74,1.35-13.7,1.69-20.88,17.35-3.53,33.84-7.62,45.43-10.9,23.62-6.67,75.38-34.62,97.11-19.53,16.32,11.37-1.37,29.06-11.52,36.46Z"/><path d="M2129.85,416.25c-9.78,13.58-20.31,27.25-31.63,39.57-7.01,7.65-15.63,15.78-24.82,24.23-1.69-7.57-3.7-14.75-6.08-21.54,8.48-7.96,16.1-15.29,22-21.76,10.9-11.96,26.86-29.85,36.19-42.64,1.98-2.74,4.8-6.03,5.1-9.51-1.64-1.64-36.51,19.78-40.58,22.35-12.03,7.6-23.84,15.61-35.6,23.75-2.11-3.55-4.39-6.96-6.79-10.22-1.37-1.86-2.79-3.65-4.24-5.39,21.76-15.05,43.54-30.83,66.85-42.61,10.76-5.42,27.44-13.43,37.74-2.7,11.12,11.62-10.95,36.51-18.13,46.46Z"/><path d="M1923.67,299.1c-4.02,10.12-7.01,20.76-11.15,30.8-7.67,18.55-16.52,35.85-24.73,53.47h-22.1c20.12-46.88,47.37-91.23,62.73-139.92-2.89-2.79-12.2,10.02-13.92,12.13-31.83,38.74-60.23,82.56-91.67,120.73-1.94,2.33-3.99,4.7-6.2,7.06h-29.75c19.04-17.42,33.91-40.92,49.47-60.94,21.1-27.17,53.17-72.21,77.48-94.19,10.61-9.61,29.43-13.75,32.3,4.48,2.4,15.24-16.12,50.36-22.47,66.38Z"/><path d="M1718.44,243.94c-6.52,39.82-20.49,80.47-21.51,120.9-.2,8.36,1.54,18.67,5.76,27.22-7.94-2.55-15.85-4.75-23.62-6.64-8.23-35.41,12.33-99.29,18.6-133.03,6.3-33.84,12.03-70.01,8.21-104.32-2.87,1.4-4.12,5.42-5.12,8.21-4.53,12.67-6.76,27.81-11.05,41.09-13.38,41.44-36.83,79.3-53.47,119.48-7.89,19.02-8.97,33.45-27.1,47.91-20.66,16.52-63.86,16.59-84.49-.49-43.15-35.7-23.7-99.59-19.68-148.18,2.82-34.38,7.47-80.74,5.15-114.48-.49-6.86-2.18-14.26-3.9-20.93-2.23.96-3.11,5.95-3.82,8.23-18.62,59.89-32.44,211.94-96.62,240.36-13.06,5.78-43.94,3.7-54.72-6.3-14.48-13.45-20.02-21.91-26.69-40.73-23.72-66.87-19.19-144.67-26.71-214.93-.17-1.62-1.76-20.76-6.32-17.18-1.76,1.37-8.21,38.64-8.9,43.89-5.54,42.39-5.86,85.86-8.92,128.4-2.84,39.18-20,92.8-69.18,86.99-36.95-4.36-55.55-44.77-61.43-77.16-8.11-44.77-10.46-92.68-17.08-138.08-3.09-21.12-6.25-42.42-11.27-63.12-3.28,1.62-3.65,6.91-4.46,10.17-15.56,62.32-13.65,133.16-26.64,195.91-6.05,29.21-22.23,61.38-52.86,70.47-45.85,13.62-73-34.99-76.11-73.88-4.41-54.84-3.06-112.01-14.53-166.07-.54-2.57-3.68-18.77-5.34-18.77-2.77,2.7-4.02,7.03-4.46,10.78-8.82,73.1-2.21,152.15-27.08,222.18-6.59,18.57-13.21,30.02-28.87,42.34-8.99,7.06-30.02,9.39-41.31,8.23-38.62-3.95-66.5-74.81-76.31-106.81-11.86-38.64-17.28-78.85-26.95-118.01-2.11-8.63-3.48-20.46-9.29-26.95-3.46,23.48-3.46,49.3-2.6,73.17,1.49,42.54,9.19,84.78,11.47,127.15,1.67,30.88.91,58.49-23.47,80.77-25.34,23.13-73.71,20.24-96.01-5.81-1-1.18-1.91-2.3-2.77-3.41v-51.92c1.03,2.25,2.01,4.53,2.96,6.81,7.45,17.64,9.8,40.53,32.79,46.07,31.19,7.5,55.11-1.2,64.52-33.47,9.29-31.78-6.2-107.65-8.5-144.62-1.79-28.69-6.18-83.85,5.05-109.39,7.72-17.57,26.07-10.56,34.92,2.03,6.76,9.65,11.2,33.45,14.09,45.68,11.84,50.33,27.89,161.83,71.92,192.58,15.12,10.51,33.6,7.23,45.06-6.89,32.76-40.33,34.85-161.46,40.04-214.29,1.79-18.26,1.52-53.71,18.43-65.5,13.87-9.63,22.13,8.14,25.46,19.06,19.19,63.25,16.49,131.34,22.25,196.48,2.25,25.24,20.63,62.8,51.34,51.36,27.86-10.41,31.41-25.53,36.19-52.81,11.1-63.32,12.67-131.47,27.3-193.98,2.11-8.97,8.9-33.52,16.71-37.98,18.18-10.37,26.73,27.89,29.33,39.48,14.24,63.88,15.54,132.18,27.52,196.28,4.83,25.75,9.29,38.82,35.09,48.86,34.38,13.4,50.55-30.78,52.44-57.56,4.21-59.64,3.09-134.99,21.91-191.75,1.98-5.93,7.5-17.72,13.7-19.38,21.51-5.73,27.59,35.56,29.26,49.65,6.71,57.34,4.58,190.64,42,233.94,17.3,20.02,40.24,11.62,55.31-5.69,47.83-54.84,45.26-154.43,69.96-218.7,5.81-15.12,27.96-32.74,38.45-13.08,11.91,22.3,8.16,76.6,6.67,102.7-2.5,43.2-16.07,104.05-11.3,144.85,4.17,35.87,32.81,50.6,66.26,42.39,23.35-5.73,26.24-29.63,33.82-47.59,14.09-33.35,33.35-64.72,46.61-98.36,7.5-19.02,16.61-68.02,30.58-78.78,9.12-7.06,20.56-4.31,26.32,5.44,12.23,20.73,1.15,84.39-2.97,109.49Z"/><path d="M592.32,270.23h-23.16c-10.93-21.83-21.91-43.67-29.77-66.48-5.37-15.58-7.82-33.74-13.58-48.71-.39-.96-3.04-9.61-5.12-6.96-2.92,39.62,3.97,79.69,11.81,118.53.24,1.18.49,2.38.76,3.63h-19.16c-2.35-10.49-4.46-20.63-5.95-30.14-3.75-23.77-15.29-91.21.02-109,5.39-6.27,14.04-7.99,21.32-3.9,16.27,9.14,25.12,60.33,32.54,79.35,8.5,21.78,19.63,42.66,30.29,63.69Z"/></svg>