<?xml version="1.0" encoding="UTF-8"?><svg id="a" xmlns="http://www.w3.org/2000/svg" width="1012.3" height="1217.55" viewBox="0 0 1012.3 1217.55"><path d="M1012.18,642.83V144.43l-49.37-.4c-294.24-2.49-422.17-112.04-423.17-112.84L507,0l-34.03,30.89c-.35.3-32.13,27.9-99.64,55.45-62.67,25.61-169.69,56.4-323.83,57.69l-49.37.4v498.4c-1.4,31.98-.45,329.96,484.35,564.21l21.67,10.51,21.67-10.51c484.7-234.25,485.7-532.23,484.35-564.21ZM506.15,1162.2C28.88,931.53,49.95,644.07,49.95,644.07V193.85c320.64-2.74,456.2-125.8,456.2-125.8,0,0,135.56,123.06,456.2,125.8v450.22s21.02,287.46-456.2,518.13Z"/><path d="M341.25,654.58s-.75.95-2.14,2.49c-13.6-3.59-17.29-4.28-1.49-4.28h.8c.95.55,1.89,1.2,2.84,1.79Z"/><path d="M341.25,654.58s-.75.95-2.14,2.49c-13.6-3.59-17.29-4.28-1.49-4.28h.8c.95.55,1.89,1.2,2.84,1.79Z"/><path d="M673.15,657.07c-1.39-1.54-2.14-2.49-2.14-2.49.95-.6,1.89-1.25,2.84-1.79h.85c15.79,0,12.11.7-1.54,4.28Z"/><path d="M673.15,657.07c-1.39-1.54-2.14-2.49-2.14-2.49.95-.6,1.89-1.25,2.84-1.79h.85c15.79,0,12.11.7-1.54,4.28Z"/><path d="M925.79,646.61l-.1-.95V229.67c-235.05-8.77-368.22-80.81-419.53-115.73-51.36,34.93-184.53,106.96-419.53,115.73v415.45l-.1,1.44c-.1,1.74-.6,17.98,4.53,44.24,5.03,25.51,16.59,65.91,43.19,113.69,30.09,54.15,73.04,106.47,127.49,155.54,65.31,58.89,147.47,113.09,244.42,161.37,96.9-48.28,179.05-102.48,244.37-161.37,54.5-49.07,97.4-101.38,127.54-155.54,26.6-47.78,38.16-88.18,43.14-113.69,5.13-26.16,4.63-42.45,4.58-44.19ZM806.62,427.41c-18.33,78.81-98.05,65.96-98.05,65.96,18.33-88.83,98.05-65.96,98.05-65.96ZM734.23,332.15s7.32,91.62-85.19,102.58c0,0-.9-99.84,85.19-102.58ZM664.53,494.16c-10.11,85.04-73.19,80.76-73.19,80.76-.95-83.4,73.19-80.76,73.19-80.76ZM631.65,271.72s10.06,92.51-70.55,113.59c0,0-20.13-91.62,70.55-113.59ZM609.68,423.77c10.96,75.13-59.58,84.24-59.58,84.24-8.22-73.29,59.58-84.24,59.58-84.24ZM506.15,210.09s62.28,69.75,0,140.79c-62.32-71.04,0-140.79,0-140.79ZM506.15,507.71c-58.64-52.56,0-122.41,0-122.41,0,0,58.64,69.85,0,122.41ZM402.63,423.77s67.8,10.96,59.53,84.24c0,0-70.55-9.12-59.53-84.24ZM420.96,574.92s-63.07,4.28-73.24-80.76c0,0,74.13-2.64,73.24,80.76ZM380.66,271.72c90.67,21.97,70.55,113.59,70.55,113.59-80.61-21.07-70.55-113.59-70.55-113.59ZM278.03,332.15c86.14,2.74,85.19,102.58,85.19,102.58-92.52-10.96-85.19-102.58-85.19-102.58ZM303.68,493.37s-79.66,12.85-98-65.96c0,0,79.71-22.87,98,65.96ZM175.45,541.94s86.09-46.73,117.28,37.56c0,0-67.8,34.77-117.28-37.56ZM300.05,766.38s13.25-82.1,101.43-57.99c0,0-13.5,63.47-101.43,57.99ZM610.83,708.39c88.18-24.11,101.43,57.99,101.43,57.99-87.93,5.48-101.43-57.99-101.43-57.99ZM673.15,657.07c-27.4,7.22-94.86,26.06-123.75,74.03,0,0-46.93,80.16-7.52,157.08,0,0,16.09,45.39,57.04,63.02h-185.58c41-17.64,57.09-63.02,57.09-63.02,39.36-76.92-7.57-157.08-7.57-157.08-28.9-48.03-96.4-66.86-123.75-74.03-10.61,11.61-59.88,58.19-133.42,11.66,0,0,51.02-66.61,132.72-15.94,47.23.25,82.55,21.03,82.55,21.03-15.29-28.95-97.75-112.69-100.34-115.33,90.17,57.74,165.35,145.57,165.35,145.57,10.86-65.07-31.69-177.16-32.83-180.3,39.41,44.09,53.01,101.98,53.01,101.98,0,0,13.6-57.89,53.01-101.98-1.15,3.14-43.69,115.23-32.88,180.3,0,0,75.23-87.83,165.4-145.57-2.59,2.64-85.04,86.39-100.34,115.33,0,0,35.27-20.78,82.5-21.03,81.75-50.67,132.77,15.94,132.77,15.94-73.53,46.53-122.86-.05-133.47-11.66ZM719.58,579.51c31.14-84.3,117.28-37.56,117.28-37.56-49.47,72.34-117.28,37.56-117.28,37.56Z"/></svg>