<?xml version="1.0" encoding="UTF-8"?><svg id="a" xmlns="http://www.w3.org/2000/svg" width="1859.55" height="1150.96" viewBox="0 0 1859.55 1150.96"><polygon points="791.4 195.37 571.91 585.37 352.01 585.37 681.45 0 791.4 195.37"/><polygon points="1039.72 199.75 929.78 395.12 916.8 418.18 822.7 585.37 597.86 585.37 804.38 218.43 817.36 195.37 927.31 0 1039.72 199.75"/><polygon points="1507.54 585.37 848.66 585.37 929.78 441.24 942.75 418.18 1052.7 222.81 1065.68 199.75 1178.1 0 1507.54 585.37"/><path d="M259.33,924.97c-14.15,0-27.34-1.77-39.59-5.3-12.24-3.54-22.61-7.7-31.1-12.49l-11.26,11.43h-13.88l-2.12-83.74h14.04c3.16,7.96,7.18,16.36,12.08,25.2,4.9,8.84,10.56,16.74,16.98,23.72,6.64,7.31,14.06,13.25,22.28,17.83,8.22,4.58,17.82,6.87,28.81,6.87,14.8,0,26.14-3.62,34.04-10.86,7.89-7.24,11.83-16.37,11.83-27.37,0-9.04-3.35-16.64-10.04-22.79-6.69-6.15-17.06-11.47-31.1-15.95-9.14-2.95-17.55-5.68-25.22-8.2-7.67-2.51-14.88-5.08-21.63-7.71-15.56-6.21-27.13-15.09-34.69-26.64-7.57-11.55-11.35-24.46-11.35-38.74,0-9.04,1.96-17.74,5.88-26.07,3.92-8.34,9.63-15.83,17.14-22.47,7.18-6.21,16.38-11.28,27.59-15.2,11.21-3.92,23.4-5.88,36.57-5.88s24.87,1.8,36.08,5.39c11.21,3.59,20.02,7.18,26.45,10.77l9.96-9.79h14.2l1.31,79.01h-14.04c-3.26-8.51-7.1-17.21-11.51-26.1-4.41-8.89-9.06-16.28-13.96-22.17-5.33-6.33-11.48-11.37-18.45-15.14-6.97-3.76-15.13-5.64-24.49-5.64-11.75,0-21.36,3.33-28.81,9.98-7.46,6.65-11.18,14.88-11.18,24.69,0,9.27,3.24,16.84,9.71,22.73,6.47,5.89,16.57,11.06,30.28,15.53,8.05,2.72,16.27,5.45,24.65,8.17,8.38,2.72,15.83,5.34,22.37,7.85,15.78,6.1,27.78,14.52,36,25.26,8.22,10.73,12.33,24.06,12.33,39.96,0,10.03-2.34,19.73-7.02,29.1-4.68,9.37-10.99,17.16-18.94,23.37-8.71,6.87-18.77,12.15-30.2,15.86-11.43,3.7-24.76,5.56-40,5.56Z"/><path d="M645.89,699.69c-3.16.33-7.7,1.06-13.63,2.2-5.93,1.14-10.91,3.13-14.94,5.96-4.14,2.72-7.05,7.62-8.73,14.69-1.69,7.08-2.53,17.69-2.53,31.83v86.19c0,25.36-8.6,45.76-25.79,61.22-17.2,15.46-39.94,23.18-68.24,23.18-32.97,0-58.5-7.45-76.56-22.36-18.07-14.91-27.1-35.69-27.1-62.36v-118.52c0-3.81-.73-7.07-2.2-9.79-1.47-2.72-4.27-5.17-8.41-7.35-2.83-1.41-6.31-2.56-10.45-3.43-4.14-.87-7.51-1.47-10.12-1.8v-12.41h121.45v12.41c-3.48.22-7.02.63-10.61,1.22-3.59.6-7.24,1.5-10.94,2.69-4.14,1.31-6.91,3.48-8.33,6.53-1.42,3.05-2.12,6.48-2.12,10.28v116.88c0,22.96,5.05,39.67,15.16,50.12,10.11,10.45,24.78,15.67,44.01,15.67s33.75-5.77,44.5-17.3c10.76-11.53,16.14-28.51,16.14-50.93v-78.52c0-13.93-.95-24.35-2.86-31.26-1.91-6.91-4.82-11.89-8.73-14.94-2.83-2.39-7.75-4.57-14.77-6.53s-11.95-3.16-14.77-3.59v-12.73h100.56v12.73Z"/><path d="M976.14,918.6h-125.54v-12.73c3.7-.33,8.24-.87,13.63-1.63,5.39-.76,9.06-1.58,11.02-2.45,4.02-1.63,6.91-3.86,8.65-6.69,1.74-2.83,2.61-6.42,2.61-10.77v-173.04l-79.66,203.57h-20.57c-.98-3.59-3.4-10.72-7.26-21.38-3.86-10.66-6.99-19.21-9.39-25.63l-58.61-159.16v140.88c0,13.5.9,23.75,2.69,30.77,1.8,7.02,4.71,12.16,8.73,15.43,2.72,2.29,7.59,4.46,14.61,6.53,7.02,2.07,11.94,3.26,14.77,3.59v12.73h-99.58v-12.73c2.72-.33,7.15-1.06,13.3-2.2,6.15-1.14,11.18-3.13,15.1-5.96,4.35-3.04,7.29-8.19,8.82-15.43,1.52-7.24,2.29-17.55,2.29-30.93v-114.76c0-6.96-.87-12.76-2.61-17.39-1.74-4.62-4.35-8.3-7.83-11.02-4.35-3.37-8.82-5.55-13.39-6.53-4.57-.98-9.2-1.63-13.88-1.96v-12.73h106.74l57.1,152.62,48.13-123.86c1.63-4.58,3.21-10.02,4.73-16.34,1.52-6.32,2.34-10.46,2.45-12.42h102.61v12.73c-3.48.22-7.13.65-10.94,1.31-3.81.65-7.46,1.53-10.94,2.61-4.24,1.42-7.05,3.65-8.41,6.69-1.36,3.05-2.04,6.42-2.04,10.12v164.06c0,3.92.68,7.21,2.04,9.88,1.36,2.67,4.16,4.98,8.41,6.94,2.18.98,5.74,1.91,10.69,2.78,4.95.87,8.79,1.47,11.51,1.79v12.73Z"/><path d="M1318.3,918.6h-125.54v-12.73c3.7-.33,8.24-.87,13.63-1.63,5.39-.76,9.06-1.58,11.02-2.45,4.02-1.63,6.91-3.86,8.65-6.69,1.74-2.83,2.61-6.42,2.61-10.77v-173.04l-79.66,203.57h-20.57c-.98-3.59-3.4-10.72-7.26-21.38-3.86-10.66-6.99-19.21-9.39-25.63l-58.61-159.16v140.88c0,13.5.9,23.75,2.69,30.77,1.8,7.02,4.71,12.16,8.73,15.43,2.72,2.29,7.59,4.46,14.61,6.53,7.02,2.07,11.94,3.26,14.77,3.59v12.73h-99.58v-12.73c2.72-.33,7.15-1.06,13.3-2.2,6.15-1.14,11.18-3.13,15.1-5.96,4.35-3.04,7.29-8.19,8.82-15.43,1.52-7.24,2.29-17.55,2.29-30.93v-114.76c0-6.96-.87-12.76-2.61-17.39-1.74-4.62-4.35-8.3-7.83-11.02-4.35-3.37-8.82-5.55-13.39-6.53-4.57-.98-9.2-1.63-13.88-1.96v-12.73h106.74l57.1,152.62,48.13-123.86c1.63-4.58,3.21-10.02,4.73-16.34,1.52-6.32,2.34-10.46,2.45-12.42h102.61v12.73c-3.48.22-7.13.65-10.94,1.31-3.81.65-7.46,1.53-10.94,2.61-4.24,1.42-7.05,3.65-8.41,6.69-1.36,3.05-2.04,6.42-2.04,10.12v164.06c0,3.92.68,7.21,2.04,9.88,1.36,2.67,4.16,4.98,8.41,6.94,2.18.98,5.74,1.91,10.69,2.78,4.95.87,8.79,1.47,11.51,1.79v12.73Z"/><path d="M1469.63,918.6h-128.47v-12.73c2.94-.22,7.26-.54,12.98-.98,5.71-.43,9.66-1.09,11.83-1.96,4.03-1.63,6.77-3.78,8.24-6.45,1.47-2.67,2.2-6.07,2.2-10.2v-164.22c0-3.7-.71-6.96-2.12-9.79-1.42-2.83-4.19-5.11-8.33-6.86-2.61-1.09-6.48-2.2-11.59-3.35-5.12-1.14-9.52-1.93-13.22-2.37v-12.73h128.47v12.73c-3.26.33-7.35.79-12.24,1.39-4.9.6-9.03,1.44-12.41,2.53-4.25,1.42-7.08,3.62-8.49,6.61-1.42,2.99-2.12,6.39-2.12,10.2v164.06c0,3.92.73,7.26,2.2,10.04,1.47,2.77,4.27,5.03,8.41,6.77,2.29.98,6.07,1.93,11.34,2.86,5.28.93,9.71,1.5,13.3,1.71v12.73Z"/><path d="M1706.5,753.23h-12.73c-3.37-9.9-8.77-20.51-16.21-31.83-7.44-11.32-14.31-17.41-20.6-18.28-3.47-.43-7.76-.82-12.87-1.14-5.1-.33-9.5-.49-13.19-.49h-7.65v181.69c0,3.92.71,7.37,2.12,10.37,1.41,2.99,4.19,5.36,8.33,7.1,2.5.98,6.39,1.99,11.67,3.02,5.28,1.04,9.77,1.77,13.47,2.2v12.73h-129.13v-12.73c3.16-.33,7.59-.79,13.3-1.39,5.71-.6,9.6-1.33,11.67-2.2,4.25-1.74,7.07-4.08,8.49-7.02,1.41-2.94,2.12-6.42,2.12-10.45v-183.32h-7.65c-3.69,0-8.09.16-13.19.49-5.1.33-9.39.71-12.87,1.14-6.3.87-13.17,6.97-20.6,18.28-7.44,11.32-12.84,21.93-16.2,31.83h-12.73v-66.28h224.46v66.28Z"/><path d="M326.55,1105.66h-13.88v-107.01h-37.79v-12.33h89.46v12.33h-37.79v107.01Z"/><path d="M435.27,1105.66l-2.69-12.73h-.65c-4.46,5.61-8.91,9.4-13.34,11.39-4.44,1.99-9.97,2.98-16.61,2.98-8.87,0-15.82-2.29-20.85-6.86-5.03-4.57-7.55-11.07-7.55-19.51,0-18.07,14.45-27.53,43.34-28.4l15.18-.49v-5.55c0-7.02-1.51-12.2-4.53-15.55-3.02-3.35-7.85-5.02-14.49-5.02-7.46,0-15.89,2.29-25.3,6.86l-4.16-10.37c4.41-2.39,9.24-4.27,14.49-5.63,5.25-1.36,10.51-2.04,15.79-2.04,10.66,0,18.57,2.37,23.71,7.1,5.14,4.73,7.71,12.33,7.71,22.77v61.05h-10.04ZM404.66,1096.11c8.43,0,15.06-2.31,19.88-6.94s7.22-11.1,7.22-19.43v-8.08l-13.55.57c-10.77.38-18.54,2.05-23.3,5.02-4.76,2.97-7.14,7.58-7.14,13.83,0,4.9,1.48,8.62,4.45,11.18,2.96,2.56,7.11,3.84,12.45,3.84Z"/><path d="M494.77,1059.87l-31.1-43.67h15.43l23.59,34.28,23.51-34.28h15.26l-31.1,43.67,32.73,45.79h-15.34l-25.06-36.24-25.3,36.24h-15.34l32.73-45.79Z"/><path d="M673.6,1073.91c0,10.5-3.81,18.69-11.43,24.57-7.62,5.88-17.96,8.82-31.02,8.82-14.15,0-25.03-1.82-32.65-5.47v-13.39c4.9,2.07,10.23,3.7,16,4.9,5.77,1.2,11.48,1.8,17.14,1.8,9.25,0,16.21-1.75,20.89-5.26s7.02-8.39,7.02-14.65c0-4.13-.83-7.52-2.49-10.16-1.66-2.64-4.44-5.07-8.33-7.3-3.89-2.23-9.81-4.76-17.75-7.59-11.1-3.97-19.03-8.68-23.79-14.12-4.76-5.44-7.14-12.54-7.14-21.3,0-9.19,3.45-16.51,10.37-21.96,6.91-5.44,16.05-8.16,27.43-8.16s22.77,2.18,32.73,6.53l-4.33,12.08c-9.85-4.13-19.43-6.2-28.73-6.2-7.35,0-13.09,1.58-17.22,4.73-4.14,3.16-6.2,7.54-6.2,13.14,0,4.14.76,7.52,2.29,10.16,1.52,2.64,4.09,5.06,7.71,7.26,3.62,2.2,9.15,4.64,16.61,7.31,12.51,4.46,21.13,9.25,25.83,14.37,4.71,5.12,7.06,11.75,7.06,19.92Z"/><path d="M733.76,1107.29c-13.22,0-23.66-4.03-31.3-12.08-7.65-8.05-11.47-19.24-11.47-33.55s3.55-25.88,10.65-34.36c7.1-8.49,16.64-12.73,28.61-12.73,11.21,0,20.08,3.69,26.61,11.06,6.53,7.37,9.79,17.1,9.79,29.18v8.57h-61.62c.27,10.5,2.92,18.47,7.96,23.92,5.03,5.44,12.12,8.16,21.26,8.16,9.63,0,19.15-2.01,28.57-6.04v12.08c-4.79,2.07-9.32,3.55-13.59,4.45-4.27.9-9.43,1.35-15.47,1.35ZM730.09,1025.92c-7.18,0-12.91,2.34-17.18,7.02-4.27,4.68-6.79,11.16-7.55,19.43h46.77c0-8.54-1.91-15.09-5.71-19.63-3.81-4.54-9.25-6.82-16.33-6.82Z"/><path d="M830.56,1014.57c3.97,0,7.54.33,10.69.98l-1.88,12.57c-3.7-.82-6.97-1.22-9.79-1.22-7.24,0-13.43,2.94-18.57,8.82-5.14,5.88-7.71,13.2-7.71,21.96v47.99h-13.55v-89.46h11.18l1.55,16.57h.65c3.32-5.82,7.32-10.31,12-13.47,4.68-3.16,9.82-4.73,15.43-4.73Z"/><path d="M877.58,1105.66l-33.96-89.46h14.53l19.26,53.05c4.35,12.41,6.91,20.46,7.67,24.16h.65c.6-2.88,2.49-8.86,5.67-17.92,3.18-9.06,10.33-28.83,21.43-59.3h14.53l-33.95,89.46h-15.83Z"/><path d="M940.59,991.96c0-3.1.76-5.37,2.29-6.82,1.52-1.44,3.43-2.16,5.71-2.16s4.05.74,5.63,2.2c1.58,1.47,2.37,3.73,2.37,6.77s-.79,5.32-2.37,6.82c-1.58,1.5-3.46,2.25-5.63,2.25-2.29,0-4.19-.75-5.71-2.25-1.52-1.5-2.29-3.77-2.29-6.82ZM955.28,1105.66h-13.55v-89.46h13.55v89.46Z"/><path d="M1019.76,1107.29c-12.95,0-22.98-3.99-30.08-11.96-7.1-7.97-10.65-19.25-10.65-33.83s3.6-26.53,10.81-34.69c7.21-8.16,17.48-12.24,30.81-12.24,4.3,0,8.6.46,12.9,1.39,4.3.93,7.67,2.01,10.12,3.26l-4.16,11.51c-2.99-1.2-6.26-2.19-9.79-2.98-3.54-.79-6.67-1.18-9.39-1.18-18.17,0-27.26,11.59-27.26,34.77,0,10.99,2.22,19.43,6.65,25.3,4.43,5.88,11,8.81,19.71,8.81,7.45,0,15.1-1.6,22.94-4.82v12c-5.99,3.1-13.52,4.65-22.61,4.65Z"/><path d="M1101.39,1107.29c-13.22,0-23.66-4.03-31.3-12.08-7.65-8.05-11.47-19.24-11.47-33.55s3.55-25.88,10.65-34.36c7.1-8.49,16.64-12.73,28.61-12.73,11.21,0,20.08,3.69,26.61,11.06,6.53,7.37,9.79,17.1,9.79,29.18v8.57h-61.62c.27,10.5,2.92,18.47,7.96,23.92,5.03,5.44,12.12,8.16,21.26,8.16,9.63,0,19.15-2.01,28.57-6.04v12.08c-4.79,2.07-9.32,3.55-13.59,4.45-4.27.9-9.43,1.35-15.47,1.35ZM1097.71,1025.92c-7.18,0-12.91,2.34-17.18,7.02-4.27,4.68-6.79,11.16-7.55,19.43h46.77c0-8.54-1.91-15.09-5.71-19.63-3.81-4.54-9.25-6.82-16.33-6.82Z"/><path d="M1215.09,1081.26c0,8.33-3.1,14.75-9.3,19.26-6.2,4.52-14.91,6.78-26.12,6.78-11.86,0-21.11-1.88-27.75-5.63v-12.57c4.3,2.18,8.91,3.89,13.83,5.14s9.67,1.88,14.24,1.88c7.07,0,12.52-1.13,16.33-3.39,3.81-2.26,5.71-5.7,5.71-10.33,0-3.48-1.51-6.46-4.53-8.94-3.02-2.48-8.91-5.4-17.67-8.77-8.33-3.1-14.24-5.81-17.75-8.12-3.51-2.31-6.12-4.94-7.84-7.88-1.71-2.94-2.57-6.45-2.57-10.53,0-7.29,2.96-13.04,8.9-17.26,5.93-4.22,14.07-6.33,24.41-6.33,9.63,0,19.04,1.96,28.24,5.88l-4.82,11.02c-8.98-3.7-17.11-5.55-24.41-5.55-6.42,0-11.26,1.01-14.53,3.02-3.26,2.01-4.9,4.79-4.9,8.33,0,2.39.61,4.44,1.84,6.12s3.2,3.29,5.92,4.82c2.72,1.52,7.94,3.73,15.67,6.61,10.61,3.86,17.78,7.75,21.51,11.67,3.73,3.92,5.59,8.84,5.59,14.77Z"/><path d="M1251.33,1086.24l1.22,1.88c-1.42,5.44-3.46,11.77-6.12,18.98-2.67,7.21-5.44,13.92-8.33,20.12h-10.2c1.47-5.66,3.09-12.65,4.86-20.98,1.77-8.33,3.01-14.99,3.71-20h14.85Z"/><path d="M1323.56,1105.66v-119.33h13.88v106.76h52.65v12.57h-66.52Z"/><path d="M1410.33,1105.66v-119.33h13.88v106.76h52.65v12.57h-66.52Z"/><path d="M1548.19,997.02c-13.11,0-23.47,4.37-31.06,13.1s-11.39,20.69-11.39,35.87,3.66,27.68,10.98,36.2c7.32,8.52,17.75,12.77,31.3,12.77,8.33,0,17.82-1.5,28.49-4.49v12.16c-8.27,3.1-18.47,4.65-30.61,4.65-17.58,0-31.14-5.33-40.69-16s-14.32-25.82-14.32-45.46c0-12.3,2.3-23.07,6.9-32.32,4.6-9.25,11.24-16.38,19.92-21.39,8.68-5,18.9-7.51,30.65-7.51,12.51,0,23.45,2.29,32.81,6.86l-5.88,11.92c-9.03-4.25-18.07-6.37-27.1-6.37Z"/></svg>