<?xml version="1.0" encoding="UTF-8"?><svg id="a" xmlns="http://www.w3.org/2000/svg" width="1836.09" height="1534.03" viewBox="0 0 1836.09 1534.03"><path d="M540.87,341.55l14.31,18.12c4.65,5.89,8.79,11.85,12.73,18.39-7.09,7.07-14.59,13.4-22.34,19.53-7.9,6.24-15.45,11.79-24.12,17.17-4.27-4.06-8.08-8.17-11.68-12.51l14.7-11.61c.92,1.07,1.95,2.06,3,3.27,3.51-1.87,6.82-4.41,9.84-6.79,3.02-2.39,6.3-5.06,8.88-8-1.87-2.78-3.64-5.22-5.7-7.84l-14.31-18.12,14.7-11.61Z"/><path d="M594.7,315.14l34.95,26.18-15.36,9.19-4.6-3.45-24.94,14.92.92,5.66-15.41,9.22-6.49-43.21c5.41-3.83,10.02-6.74,15.14-9.8,5.12-3.06,9.86-5.75,15.8-8.7ZM581.02,337.75l1.75,11.29,16.51-9.88-9.12-6.88c-.78.32-3.4,1.81-4.67,2.57s-3.82,2.36-4.47,2.9Z"/><path d="M662.11,313.58c-.23-1.02-.5-1.95-.85-2.92l17.05-7.42c1.75,4.34,3.11,8.58,4.29,13.24-8.29,5.71-16.95,10.25-25.94,14.16-9,3.92-18.16,7.14-27.99,9.31-3.36-5.32-6.11-10.49-8.56-16.14-2.46-5.65-4.38-11.18-5.98-17.27,8.29-5.71,16.89-10.22,25.88-14.14,9-3.92,18.14-7.34,27.79-9.93,2.73,4.34,5.09,8.49,7.16,12.9l-17.11,7.45c-.47-.92-1.05-1.78-1.63-2.79-3.49.82-7.9,2.74-11.08,4.12-3.24,1.41-7.59,3.3-10.57,5.3.79,2.46,1.57,4.56,2.59,6.92,1.03,2.35,2.04,4.36,3.3,6.61,3.49-.82,7.84-2.71,11.08-4.12,3.17-1.38,7.59-3.3,10.56-5.3Z"/><path d="M700.69,299.1l3.64,12.77-17.27,4.92-11.08-38.87,17.27-4.93,3.84,13.45c1.56-.38,3.41-.91,5.2-1.42,2.1-.6,5.39-1.67,6.59-2.15l9.97-17.19,19.93-5.68-14.11,25.37,26.43,13.14-19.93,5.68-18.6-8.37c-1.27.23-4.64,1.06-6.73,1.65-1.79.51-3.62,1.1-5.15,1.6Z"/><path d="M748.37,282.57c-1.54-3.72-2.36-7.04-2.93-10.78-.62-4.06-.76-7.6-.49-11.8,9.2-2.62,18.4-4.41,27.6-5.8,9.32-1.41,18.61-2.62,28.17-3.29l1.67,11.03c-6.18.74-11.94,1.22-20.38,2.5-7.93,1.2-13.21,2.26-19.12,3.54-.08.34-.07.79,0,1.23.06.38.16.62.35,1.05,13.21-1.42,26.39-3.93,40.07-3.15,1.47,3.73,2.33,6.78,2.92,10.72.6,3.99.76,7.6.48,11.73-9.28,2.57-18.53,4.43-27.92,5.85-9.2,1.39-18.49,2.54-27.98,3.26l-1.68-11.1c6.33-.63,12.26-1.27,21.08-2.61,7.86-1.19,13.15-2.25,18.36-3.43.1-.21.17-.61.09-1.12-.07-.44-.24-.74-.43-1.1-13.36,1.76-26.16,3.77-39.86,3.24Z"/><path d="M842.33,289.91c-10.32.23-20.6-.12-31.02-1.3-.66-6.4-1.05-12.49-1.19-18.83-.14-6.35-.02-12.45.35-18.87,10.36-1.64,20.6-2.45,30.93-2.68,10.32-.23,20.6.12,31.02,1.3.66,6.4,1.05,12.49,1.19,18.83.14,6.35.02,12.44-.35,18.87-10.36,1.64-20.6,2.45-30.93,2.68ZM829.46,276.72c4.05.36,8.54.45,12.58.36,4.04-.09,8.52-.38,12.55-.92.26-2.57.34-4.82.29-7.38-.06-2.56-.24-4.81-.61-7.36-4.05-.36-8.54-.45-12.58-.36-4.04.09-8.52.38-12.55.92-.26,2.57-.34,4.82-.28,7.38.06,2.56.24,4.81.61,7.36Z"/><path d="M939.19,295.47l-17.86-1.94v-.06s-21.74-29.72-21.74-29.72c-.82-.22-1.45-.29-2.16-.36l-2.95,27.23-17.86-1.94,4.36-40.18,1.98.21c9.18,1,17.57,2.17,28.8,3.96l12.09,17.57,1.83-16.9,17.86,1.94-4.36,40.18Z"/><path d="M977.8,291.78l16.18-24.88,18.65,4.46-23.69,35.88c-6.42-1.01-12-2.21-17.68-3.57-5.68-1.36-11.2-2.81-17.38-4.82l-4.94-42.73,18.71,4.48,3.16,29.51c.59.27,2.12.77,3.43,1.08,1.25.3,2.84.55,3.55.59Z"/><path d="M1021.09,317.63l-17.04-5.67,12.76-38.34,17.04,5.67-12.76,38.34Z"/><path d="M1057.17,288.11l-2.63,6.2c-2.58,6.08-5.5,13.13-7.9,19.29,2.52,1.77,5.6,3.07,8.37,4.25,2.78,1.18,5.79,2.46,8.87,3.07.4-.94.97-1.96,1.43-2.88l16.54,7.01c-2.1,4.62-4.3,8.83-7.11,13.64-8.55-2.51-16.65-5.6-24.74-9.03-8.27-3.5-15.82-7.06-23.75-11.53,3.39-10.13,7.62-21.09,11.75-30.83l2.63-6.2,16.54,7.01Z"/><path d="M1112.09,314.1l-3.32,5.86c-3.26,5.75-6.96,12.42-10.05,18.26,2.31,2.04,5.21,3.69,7.83,5.17,2.62,1.49,5.47,3.1,8.46,4.06.5-.89,1.19-1.83,1.75-2.7l15.62,8.85c-2.61,4.35-5.28,8.29-8.62,12.74-8.21-3.47-15.9-7.46-23.54-11.79-7.81-4.43-14.91-8.82-22.27-14.17,4.53-9.67,9.98-20.08,15.19-29.28l3.32-5.86,15.62,8.85Z"/><path d="M1169.64,381.38l-21.11-15.47-1.86,2.53c4.54,4.12,10.02,8.14,14.93,11.74,5.28,3.87,11.59,8.5,17.29,11.88l-7.28,9.93c-8.12-5.31-15.62-10.58-23.23-16.16-7.92-5.8-15.97-11.95-23.48-18.09l23.82-32.49c8.74,5.77,17.8,12.17,26.28,18.39,6.88,5.04,13.44,10.09,20.22,15.7l-7.28,9.93c-5.36-4.73-12.61-10.04-18.24-14.17-4.4-3.22-9.1-6.67-13.7-9.41l-2.09,2.85,21.05,15.44-5.33,7.38Z"/><path d="M1182.01,393.34c2.08,1.12,4.15,2.56,5.95,4.11,1.75,1.51,3.48,3.34,4.94,5.27-1.49,1.93-2.87,3.62-4.46,5.47-1.59,1.85-3.06,3.46-4.75,5.22l-17.22.82-1.94-1.67,12.29-4.14c-1.51-1.3-2.89-2.74-4.01-4.39,1.45-1.97,2.82-3.67,4.41-5.51s3.06-3.46,4.8-5.18Z"/><path d="M1253.52,487.55l-12.22-14.11.05-.04,5.01-43.7c-.78-1.1-1.46-1.88-2.25-2.8l-24.63,21.33-12.26-14.16,34.92-30.23,1.43,1.65c6.55,7.57,12.44,14.77,19.94,24.4l-3.95,27.77,16.68-14.44,12.22,14.11-34.92,30.23Z"/><path d="M1294.24,526.05c1.38-.57,2.59-1.19,3.87-1.92l10.97,17.27c-4.56,2.75-9.01,4.96-13.95,7.11-7.85-8.54-14.56-17.66-20.64-27.24-6.09-9.58-11.52-19.58-15.91-30.32,5.46-4.68,10.87-8.73,16.88-12.54,6.01-3.82,11.97-6.99,18.53-9.95,7.85,8.54,14.59,17.71,20.68,27.29,6.09,9.58,11.65,19.43,16.47,29.89-4.37,3.76-8.5,7.07-13.04,10.1l-11-17.33c1.16-.81,2.25-1.73,3.5-2.75-1.98-4.44-4.65-8.75-7.19-12.76-2.58-4.06-5.38-8.36-8.56-12.04-2.99,1.52-5.64,2.97-8.45,4.76-2.82,1.79-5.26,3.57-7.9,5.62,1.98,4.44,4.68,8.81,7.26,12.87,2.55,4.01,5.32,8.25,8.49,11.93Z"/><path d="M669.63,1282.04l-24.23-9.88-1.19,2.91c5.4,2.89,11.7,5.46,17.34,7.76,6.06,2.47,13.3,5.43,19.66,7.33l-4.65,11.4c-9.16-3.18-17.72-6.47-26.46-10.03-9.09-3.71-18.4-7.71-27.17-11.84l15.21-37.29c9.87,3.47,20.22,7.49,29.96,11.46,7.9,3.22,15.49,6.53,23.43,10.32l-4.65,11.4c-6.35-3.28-14.66-6.67-21.14-9.31-5.05-2.06-10.45-4.26-15.58-5.8l-1.33,3.27,24.17,9.86-3.38,8.46Z"/><path d="M688.49,1288.11c.1-4.03.68-7.39,1.67-11.05,1.08-3.96,2.37-7.27,4.31-10.99,9.48,1.31,18.62,3.39,27.6,5.82,9.1,2.47,18.09,5.11,27.11,8.35l-2.92,10.77c-5.96-1.81-11.43-3.7-19.66-5.93-7.74-2.1-13-3.26-18.92-4.47-.21.28-.39.69-.5,1.13-.1.37-.11.64-.1,1.1,12.66,4.03,25.74,7.05,37.94,13.28-.16,4.01-.61,7.15-1.65,10.98-1.06,3.9-2.37,7.27-4.29,10.93-9.53-1.39-18.74-3.42-27.91-5.91-8.98-2.43-17.95-5.13-26.92-8.3l2.94-10.83c6.04,1.97,11.74,3.78,20.34,6.12,7.68,2.08,12.94,3.25,18.18,4.27.17-.15.4-.49.53-.99.12-.43.08-.78.05-1.18-12.93-3.77-25.45-7.1-37.78-13.11Z"/><path d="M809.52,1301.91c-10.69-1.81-17.14-2.95-21.44-3.64l-4.04,27.8-17.77-2.58,4.04-27.8c-4.33-.56-10.83-1.31-21.59-2.62l1.84-12.63c10.29.98,20.35,2.25,30.51,3.72,10.22,1.48,20.16,3.12,30.3,5.12l-1.83,12.63Z"/><path d="M810.7,1314.59c2.34-.36,4.85-.44,7.22-.29,2.3.16,4.78.58,7.12,1.25-.04,2.44-.12,4.62-.28,7.05-.16,2.43-.38,4.6-.67,7.03-2.4.35-4.91.38-7.22.22-2.37-.16-4.85-.52-7.12-1.19-.03-2.45.05-4.63.22-7.06.16-2.43.37-4.6.73-7.02Z"/><path d="M881.31,1318.65c2.5-.08,3.85-.15,8.2-.4,10.5-.59,14.79-.96,20.96-2.08l.58,11.47c-8.54,1.25-16.97,2.04-25.49,2.52-8.97.5-18.34.64-27.53.58l-.66-11.78,33.5-20.19c-.03-.51,0-.96-.02-1.48-.04-.77-.15-1.6-.19-2.3-2.09-.59-3.51-.7-7.1-.5-3.46.19-4.79.46-6.93,1.29.04.77-.04,1.54,0,2.38l.05.83-18.25,1.02-.05-.83c-.26-4.61-.15-8.41.36-13.13,8.12-1.87,16.16-2.83,24.17-3.28,8.13-.46,16.04-.39,24.38.56.96,4.51,1.56,8.33,1.81,12.88.14,2.5-.03,5.14-.66,7.68l-27.12,14.76Z"/><path d="M947,1323.24c-8.92,1.52-17.86,2.46-27.03,2.53-1.75-7.18-3.11-14.04-4.34-21.25-1.23-7.21-2.21-14.07-2.94-21.43,8.67-2.98,17.4-5.18,26.32-6.7,8.92-1.52,17.88-2.34,27.11-2.42,1.62,7.21,2.98,14,4.21,21.21,1.23,7.21,2.22,14.13,3.08,21.47-8.73,2.99-17.48,5.07-26.4,6.59ZM936.44,1311.32c2.74.05,5.69-.19,8.41-.66,2.66-.45,5.52-1.2,8.15-2.17-.4-3.51-.87-6.62-1.46-10.1-.59-3.48-1.18-6.56-1.97-10.01-2.82-.11-5.77.14-8.42.59-2.72.46-5.58,1.21-8.14,2.24.34,3.52.8,6.63,1.4,10.11.59,3.48,1.19,6.57,2.03,10Z"/><path d="M1000.08,1299.19c2.42-.63,3.72-1,7.91-2.21,10.11-2.91,14.21-4.22,19.97-6.68l3.11,11.05c-8.05,3.12-16.1,5.77-24.3,8.13-8.63,2.48-17.74,4.7-26.71,6.68l-3.26-11.34,28.17-27.13c-.14-.49-.21-.94-.35-1.44-.21-.74-.5-1.52-.7-2.2-2.17-.11-3.58.09-7.03,1.09-3.33.96-4.57,1.52-6.47,2.8.21.74.3,1.51.53,2.32l.23.8-17.57,5.05-.23-.8c-1.28-4.44-2.02-8.16-2.57-12.88,7.5-3.63,15.13-6.35,22.83-8.57,7.83-2.25,15.55-3.94,23.9-4.87,1.94,4.18,3.37,7.77,4.63,12.15.69,2.4,1.11,5.02,1.06,7.64l-23.16,20.42Z"/><path d="M1031.94,1280.64c-2.62-4.33-4.49-8-6.26-12.27-1.57-3.79-2.62-7.18-3.48-11.26,7.65-4.49,15.42-8.19,23.31-11.45,7.41-3.07,14.86-5.87,22.62-8.25l4.29,10.37c-3.06.99-11.86,4.21-16.37,6.08-6.28,2.6-10.05,4.23-14.26,6.32.14.5.42,1.35.69,2,.22.53.53,1.1.81,1.61,10.28-3.84,20.39-8.44,31.3-10.59,2.76,4.48,4.48,7.8,6.49,12.66,1.74,4.21,3.14,8.42,4.13,13.01-7.2,4.23-14.62,7.79-22.15,10.9-7.7,3.19-15.7,6.01-24.03,8.21-2.32-3.42-3.87-6.66-5.44-10.45l-.52-1.25,16.54-6.84.52,1.25c.17.41.35.69.54.96,2.53-.42,4.33-1.1,8.01-2.62,3.32-1.37,5.01-2.14,6.87-3.54-.27-1-.72-2.06-1.28-3.43-.47-1.13-.79-1.9-1.25-2.68-10.4,4.23-20.29,8.33-31.09,11.27Z"/><polygon points="449.32 1017.64 435.03 1058.17 475.56 1058.17 489.86 1017.64 449.32 1017.64"/><polygon points="287.19 1017.64 272.89 1058.17 313.43 1058.17 327.72 1017.64 287.19 1017.64"/><path d="M829.28,1000.27c-5.43,0-12.92.18-17.46.72l-40.49,47.07h80.93l-6.22-47.07c-4.15-.54-11.5-.72-16.75-.72Z"/><polygon points="368.25 1017.64 353.96 1058.17 394.49 1058.17 408.79 1017.64 368.25 1017.64"/><path d="M854.45,179.66c81.94,0,161.45,16.05,236.3,47.71,72.29,30.58,137.21,74.34,192.95,130.09,55.75,55.75,99.51,120.67,130.09,192.95,5.58,13.19,10.66,26.52,15.27,39.98,5.14-.48,11.57-.78,20.04-.78,15.24,0,26.46,2.6,35.33,8.19,4.47,2.82,8.2,6.35,11.12,10.42,16.27-10.31,30.88-16.74,44.21-16.74s30.62,5.1,44.11,13c21.9,12.82,33.97,32.16,33.97,54.45,0,13.78-7.91,30.44-25.81,66.83-7.85,15.97-15.98,32.48-22.28,47.23-.81,1.89-1.55,3.67-2.22,5.33,5.44-3.07,10.69-6.39,14.79-8.97,1.87-1.18,3.5-2.21,4.98-3.11,9.81-8.66,19.81-17.38,29.76-25.97,19.63-16.94,37.43-29.7,60.49-36.88,11.37-3.54,24.12-5.41,36.88-5.41,20.95,0,40.78,4.94,54.4,13.57,24.61,15.58,39.73,48.43,43.74,95.01,3.88,45.14-3.27,96.99-20.13,146.01-19.64,57.08-51.26,106.49-91.43,142.88-34.73,31.46-76.75,54.22-124.88,67.64-33.09,9.23-68.41,13.91-104.97,13.91h-.01c-8.91,0-17.61-.28-26.55-.85h-124.42c-11.51,13.73-23.67,27.01-36.46,39.8-55.75,55.75-120.67,99.51-192.95,130.09-74.85,31.66-154.35,47.71-236.3,47.71s-161.45-16.05-236.3-47.71c-72.29-30.58-137.21-74.34-192.95-130.09-12.79-12.79-24.94-26.07-36.46-39.8h-211.96l-3.85-1.07c-25.29-7.03-44.61-20.62-55.87-39.31-11.85-19.67-11.19-39.21-9.66-52.19,1.85-15.73,6.83-33.81,13.13-56.69,5.31-19.28,13.1-40.84,28.63-83.8,2.38-6.58,4.35-11.96,5.67-15.55l7.06-19.21h13.83c2.86-.99,6.12-1.75,9.77-2.05,1.36-.11,2.84-.23,73.59-.31-.44-2.21-.87-4.42-1.28-6.63-4.24-2.49-8.65-5.86-13.07-10.42-12.81-13.19-23.61-34.12-31.08-58.43-6.37,8.24-12.9,16.25-19.41,23.74-13.14,15.12-25.41,27.34-36.46,36.3-16.55,13.41-30.54,19.66-44.04,19.66-49.47,0-76.83-65.02-76.83-109.96s30.48-116.12,60.84-180.44l-12.69-1.88c-29.52-4.37-62.53-32.94-62.53-64.64,0-25.34,17.61-61.16,44.86-91.26,33.19-36.65,73.63-56.84,113.87-56.84,29,0,56.65,9.36,77.88,26.36,16.58,13.29,27.73,29.91,32.01,47.21,4.76-12.88,9.55-26.24,14.32-40.08l4.38-12.67,12.45-4.98c13.95-5.58,39.77-7.13,53.34-7.56,15.29-19.56,31.83-38.26,49.59-56.02,55.75-55.75,120.66-99.51,192.95-130.09,74.85-31.66,154.35-47.71,236.3-47.71M854.45,134.66c-88,0-173.4,17.25-253.83,51.27-77.65,32.85-147.38,79.85-207.24,139.72-14.05,14.05-27.53,28.81-40.25,44.06-19.99,1.71-35.94,4.91-47.57,9.56l-12.45,4.98-14.46,5.78c-27.79-19.3-61.98-29.83-97.42-29.83-53.11,0-105.4,25.44-147.23,71.64-16.15,17.83-29.87,37.81-39.68,57.77-11.17,22.71-16.83,44.15-16.83,63.7,0,26.97,11.99,53.53,33.77,74.77,7.43,7.24,15.75,13.58,24.57,18.82-7.8,17.79-15.57,36.55-22.22,54.85-14.63,40.24-21.74,72.46-21.74,98.51,0,31.85,9.79,67.31,26.2,94.86,10.12,17,22.44,30.75,36.61,40.87,13.03,9.3,27.57,15.36,42.75,17.89-9.93,27.65-15.78,44.71-20.29,61.08-6.81,24.72-12.19,44.25-14.44,63.38-.93,7.88-1.95,20.04-.15,34.45,2.08,16.55,7.44,32.1,15.95,46.22,17.3,28.73,45.78,49.29,82.37,59.45l3.85,1.07,5.91,1.64h197.56c8.16,9.12,16.58,18.03,25.18,26.62,59.86,59.86,129.59,106.87,207.24,139.72,80.43,34.02,165.83,51.27,253.83,51.27s173.4-17.25,253.83-51.27c77.65-32.84,147.38-79.85,207.24-139.72,8.6-8.6,17.02-17.51,25.18-26.62h102.48c9.39.57,18.55.84,27.94.85,40.67,0,80.05-5.24,117.08-15.56,54.92-15.32,103.04-41.44,143-77.64,45.78-41.47,81.66-97.34,103.77-161.59,18.87-54.83,26.83-113.25,22.42-164.51-2.44-28.37-8.53-53.3-18.1-74.09-11.08-24.08-26.7-42.61-46.4-55.08-20.93-13.25-48.8-20.54-78.47-20.54-17.23,0-34.61,2.58-50.26,7.45-.45.14-.9.28-1.35.43.01-.64.02-1.28.02-1.92,0-38.37-20.5-72.37-56.24-93.29-20.5-12-45.49-19.16-66.84-19.16-14.33,0-27.83,3.64-39.75,8.56-11.6-5.66-24.74-8.98-39.78-10.05-1.62-4.07-3.29-8.11-4.98-12.12-32.85-77.66-79.85-147.38-139.72-207.25s-129.59-106.87-207.24-139.72c-80.43-34.02-165.83-51.27-253.83-51.27h0Z"/><path d="M1753.13,736.33c-14.16-8.97-42.89-12.41-66.88-4.93-16.72,5.21-30.52,14.23-50.06,31.08-12.65,10.92-23.37,20.32-31.55,27.55-9.07,5.18-37.9,25.84-55.52,25.84-9.38,0-18.13-5.63-18.13-15,0-30.63,57.52-124.41,57.52-141.92,0-26.88-35.64-38.14-48.76-38.14-18.76,0-61.89,36.89-77.52,48.14,3.75-8.75,11.25-35.01,11.25-37.51,0-6.88-4.38-12.5-24.38-12.5s-25.63,1.88-30.01,3.13c-23.25,51.89-43.05,113.41-56.37,161.26-14.1-.42-32.23-4.19-39.29-11.84,15-23.76,20.01-62.52,20.01-89.4,0-42.51-40.01-76.27-82.53-76.27-83.15,0-139.42,109.41-139.42,180.06,0,2.75.14,5.53.4,8.33-12.43,9-31.51,23.87-40.41,28.55,11.88-21.88,15.63-43.76,15.63-65.02,0-46.26-19.38-87.53-19.38-113.79,0-38.14,25.01-48.14,25.01-63.77,0-10.63-8.75-18.13-21.26-18.13-20.01,0-44.39,41.89-131.29,174.43-15.63,1.25-36.26,15.63-36.26,48.77,0,3.34.32,6.99.96,10.84-16.56,9.87-45.83,26.67-61.6,26.67-23.13,0-26.26-7.5-26.26-16.26,0-26.88,25.63-84.4,56.27-143.17,24.38-3.13,48.77-6.88,60.64-8.75,2.5-4.38,6.25-18.13,6.25-25.63s-10.63-11.88-30.01-11.88h-11.25c37.51-67.52,73.15-127.54,73.15-130.67,0-10.63-8.13-16.25-22.51-16.25s-33.76,3.75-45.64,4.38c-12.5,27.51-42.51,86.28-73.77,147.55-16.88,1.88-31.88,2.5-41.26,3.13-4.38,8.75-8.75,17.51-8.75,30.63,0,10,10,15.63,15,15.63,3.13,0,6.25,0,10.63-.63-21.48,44.94-41.18,88.1-52.67,118.88-8.31,4.57-34.37,26.16-58.6,26.16-8.75,0-16.25-3.75-16.25-14.38,0-35.01,67.52-164.43,67.52-172.55,0-6.88-3.75-11.88-9.38-11.88-49.39,0-51.27.63-55.02,1.88l-11.88,31.88c-6.25-23.13-23.13-40.01-46.26-40.01-60.48,0-130.5,87.72-137.57,172.5-.68.03-1.31.05-1.84.05-30.63,0-53.14-8.13-64.39-48.77,83.15-88.15,145.67-177.55,145.67-240.7,0-26.26-19.38-48.77-43.14-48.77-96.28,0-152.55,157.55-152.55,245.08,0,12.5,1.25,25.01,3.75,37.51-23.76,26.26-51.27,50.02-74.4,65.02-4.38-11.88-6.25-26.26-6.25-41.26,0-110.03,104.41-287.59,104.41-294.47,0-8.75-4.38-14.38-22.51-14.38-16.25,0-41.89,1.88-51.27,5.63-71.9,208.19-159.42,348.86-180.68,348.86-8.75,0-4.38-36.89,18.13-90.65,35.01-83.78,93.15-193.18,93.15-211.94,0-26.88-33.76-60.02-82.53-60.02-73.15,0-129.41,86.28-129.41,118.79,0,15,20.63,33.14,37.51,35.64,21.88-58.77,51.89-93.78,71.27-93.78,10,0,16.26,7.5,16.26,16.88,0,28.13-110.66,211.94-110.66,288.21,0,31.88,19.38,80.65,47.51,80.65,26.26,0,90.03-78.77,118.16-130.67-1.88,63.77,26.26,126.29,48.76,126.29,28.76,0,36.26-22.51,115.04-107.53,21.88,46.89,63.14,61.27,87.53,61.27,8.13,0,11.25-1.88,13.75-3.13.25-.17.51-.37.77-.59,8.4,42.58,34.99,56.86,54.23,56.86,21.26,0,60.64-45.64,68.77-56.27,10,30.63,32.51,51.89,55.02,51.89,27.41,0,59.23-24.36,77.95-42.11,4.88,20.82,26.07,47.11,53.95,47.11,53.03,0,101.11-40.48,117.92-57.35,14.3,26.83,42.1,52.35,85.27,52.35,61.08,0,104.63-36.68,120.12-52.12,13.7,29.15,41.84,53.37,81.81,53.37,48.76,0,70.65-33.76,93.15-64.4,8.07,9.31,29.07,11.84,45.27,11.88-4.21,17.78-6.52,30.03-6.52,33.76,0,13.75,19.38,13.75,60.64,11.88,10-102.53,66.9-194.43,95.03-194.43,5.63,0,11.25,3.75,11.25,12.5,0,8.13-49.39,101.28-49.39,129.41,0,32.51,20.63,54.39,54.39,54.39,33.8.55,79.86-40.62,91.21-51.74,0,.03,0,.05,0,.05,0,0,10.46-8.93,17.86-17.91,15.16-18.38,41.53-43.4,51.67-38.35,1.78.88,4.03,3.18,4.84,10.5,3.13,28.2-21.34,75.29-67.33,109.3-33.45,24.74-66.07,33.54-86.94,38.96-33.47,8.69-62.43,9.94-82.42,9.43-477.41-.23-1251.12-.54-1257.65,0-3.53.29-5.53,2.15-5.53,2.15-1.31,3.56-3.26,8.89-5.6,15.36-15.29,42.32-22.94,63.48-27.95,81.66-12.22,44.35-18.33,66.54-6.63,85.97,9.75,16.19,27.43,23.09,38.61,26.19h1264.75c37.17,2.44,149.78,4.79,235.79-73.12,116.47-105.5,124.46-304.08,71.83-337.4ZM507.58,505.15c5.63,0,10.63,6.25,10.63,13.75,0,26.88-33.76,91.9-95.03,166.93-6.25-101.91,66.9-180.68,84.4-180.68ZM573.22,829c-8.75,0-13.75-8.75-13.75-25.01,0-61.27,55.64-144.42,85.65-144.42,11.88,0,16.26,10,16.26,18.13,0,36.26-45.01,151.3-88.15,151.3ZM994.58,819c-7.5,0-18.76-6.25-21.88-10,7.5-2.5,21.88-15,21.88-30.01,0-11.88-5.63-21.88-10-23.76,13.75-18.13,43.14-63.14,55.02-85.65,1.25,11.25,3.75,44.39,3.75,75.65s-14.38,73.77-48.76,73.77ZM1280.92,682.7c-20.01,0-30.01,25.01-30.01,44.39s8.75,34.39,17.51,45.64c-6.25,25.01-36.89,55.64-58.77,55.64s-25.01-16.88-25.01-43.14c0-57.52,39.39-128.79,76.27-128.79,20.01,0,31.26,13.75,31.26,28.13-1.88-.63-5.63-1.88-11.25-1.88ZM475.56,1058.17l-14.29,40.53h-40.53l14.29-40.53h-40.53l-14.29,40.53h-40.53l14.29-40.53h-40.53l-14.29,40.53h-40.53l14.29-40.53h-40.53l-14.29,40.53h-40.53l14.29-40.53h40.53l14.29-40.53h-40.53l14.29-40.53h40.53l-14.29,40.53h40.53l14.29-40.53h40.53l-14.29,40.53h40.53l14.29-40.53h40.53l-14.29,40.53h40.53l14.29-40.53h40.53l-14.29,40.53h40.53l-14.29,40.53h-40.53ZM685.62,1094.05h-37.11l-35.08-36.93h-.18l-6.89-7.42-7.31-7.78,1.19-3.26h19.73c19.01,0,36.21,0,53.19-.91,3.34-6.7,6.26-13.22,8.7-19.91,2.37-6.52,3.92-11.77,5.39-18.28-15.83-1.27-30.78-1.99-48.7-1.99-16.11,0-32.29.18-48.68,1.45l-34.78,95.05h-29.33l41.51-114.06c26.42-1.45,52.62-1.81,78.51-1.81,23.72,0,53.09.36,75.71,4.89-2.21,11.04-4.52,21.36-8.54,32.41-4.68,12.85-10.1,26.25-17.76,39.83-14.02.72-29.18,1.09-44.34,1.45l34.76,37.29ZM858.33,1094.05l-3.43-25.89h-100.84l-22.28,25.89h-29.51l96.35-113.51c14.15-1.09,25.51-1.45,38.36-1.45s23.95.36,37.31,1.45l13.54,113.51h-29.51ZM1018.26,999.37c-16.11,0-34.53.36-51.3,2.17-5.5,12.13-9.95,23.35-14.36,35.48-4.41,12.13-8.14,23.35-11.47,35.48,15.45,1.81,33.61,2.17,49.72,2.17s33.81-.36,50.4-2.17c3.1-6.52,5.62-11.95,8.1-18.28h30.41c-4.66,12.31-9.9,23.72-16.07,36.21-27.82,3.8-54.48,5.43-80.55,5.43s-52.27-1.63-77.32-5.43c4.42-18.1,9.52-35.12,16.18-53.41,6.59-18.1,13.94-35.3,22.7-53.41,27.82-3.8,54.84-5.43,81.27-5.43s51.68,1.27,76.99,4.35c-3.05,12.85-6.25,24.62-10.43,37.11h-30.6c2.06-6.16,3.56-11.77,5.14-18.1-15.27-1.81-33.06-2.17-48.81-2.17ZM1093.51,1094.05l41.51-114.06h29.51l-41.51,114.06h-29.51ZM1287.04,1094.05l-52.52-91.97c-6.75-.36-12.29-.54-19.17-.54l-33.67,92.51h-29.51l41.51-114.06h4.35c19.73,0,39.09.54,61.68,1.63l40.84,75.31,28-76.94h29.51l-41.51,114.06h-29.51ZM1542.49,1001.54c-21.02-1.45-46.1-2.17-67.46-2.17-19.91,0-44.6.18-65.18,1.99-5.44,11.95-10.2,23.54-14.61,35.67-4.41,12.13-7.96,23.35-11.1,35.48,15.27,1.81,34.33,2.17,50.44,2.17s34.89-.36,51.3-2.17c3.11-5.07,5.96-11.41,11.27-24.98h-36.93l6.19-17.02h66.8c-12.35,32.95-19.4,48.34-26.01,61.01-27.37,3.08-54.26,4.35-80.33,4.35s-52.22-1.27-77.71-4.35c4.73-18.47,9.85-36.03,16.57-54.49,6.85-18.83,14.4-36.57,23.42-55.4,27.54-2.53,54.12-3.44,80.55-3.44s54,.36,80.23,2.9l-7.45,20.46Z"/></svg>